<svg width="180" height="180" viewBox="0 0 180 180" fill="none" xmlns="http://www.w3.org/2000/svg">
<path d="M180 0V179.989L178.649 174.619C178.649 174.619 178.649 174.561 178.615 174.527C178.134 173.588 177.527 172.661 176.806 171.756C177.172 172.203 177.802 171.939 177.802 171.424C177.802 171.39 177.768 171.333 177.768 171.275L134.027 1.38541C133.935 1.11062 133.58 1.11062 133.512 1.35106C133.603 0.893073 133.661 0.446536 133.661 0H179.989H180Z" fill="#3676B6"/>
<path d="M133.523 1.35106C133.615 0.893073 133.672 0.446536 133.672 0L134.039 1.38541C133.947 1.11062 133.592 1.11062 133.523 1.35106Z" fill="#3676B6"/>
<path d="M3.22903 171.699C2.53055 172.604 1.93514 173.508 1.45423 174.447V174.481L0.0343499 180H0V0H46.3628C46.3628 0.480885 46.42 0.938872 46.5116 1.38541C46.4543 1.11062 46.0879 1.11062 45.9963 1.38541L2.25573 171.241C2.25573 171.298 2.22138 171.333 2.22138 171.39C2.22138 171.871 2.8855 172.146 3.21756 171.688L3.22903 171.699Z" fill="#3676B6"/>
<path d="M46.0075 1.38541L46.3625 0C46.3625 0.480885 46.4197 0.938872 46.5113 1.38541C46.4541 1.11062 46.0877 1.11062 45.9961 1.38541H46.0075Z" fill="#3676B6"/>
<path d="M177.8 171.425C177.8 171.94 177.17 172.203 176.804 171.757C176.139 170.909 175.384 170.096 174.548 169.318C174.158 168.929 173.701 168.539 173.22 168.139C172.888 167.841 172.521 167.566 172.166 167.291C171.353 166.627 170.449 165.997 169.452 165.356C168.937 164.99 168.399 164.658 167.826 164.337C167.437 164.12 167.048 163.891 166.624 163.639C165.994 163.272 165.353 162.94 164.666 162.585C162.193 161.315 159.422 160.112 156.433 158.967C155.563 158.635 154.681 158.303 153.777 158.006C151.029 157.044 148.109 156.162 145.029 155.326C143.128 154.811 141.17 154.33 139.155 153.884C139.029 153.849 138.948 153.826 138.822 153.826C137.735 153.586 136.658 153.346 135.536 153.128C134.426 152.888 133.303 152.682 132.158 152.464C131.013 152.246 129.868 152.04 128.689 151.857C127.509 151.674 126.342 151.468 125.128 151.319C123.925 151.136 122.712 150.964 121.475 150.804C118.979 150.472 116.437 150.197 113.849 149.956C112.761 149.831 111.674 149.739 110.563 149.659C107.517 149.418 104.448 149.235 101.277 149.086C100.097 149.029 98.8949 148.995 97.6926 148.96C95.1621 148.869 92.5972 148.834 90.0094 148.834C87.4216 148.834 84.8567 148.869 82.3261 148.96C81.1811 148.995 80.036 149.018 78.891 149.086C75.7879 149.212 72.7078 149.384 69.7307 149.659C68.494 149.75 67.2918 149.842 66.078 149.956C64.6925 150.082 63.3299 150.231 62.0131 150.38C60.868 150.506 59.723 150.655 58.6123 150.804C57.5589 150.93 56.5054 151.079 55.452 151.227C54.1008 151.411 52.7382 151.617 51.41 151.857C49.1772 152.224 47.0131 152.613 44.8947 153.036C43.6581 153.277 42.4558 153.552 41.2764 153.815C40.1886 154.033 39.1352 154.296 38.0817 154.536C35.0703 155.292 32.2305 156.071 29.5168 156.918C28.6122 157.193 27.742 157.49 26.8947 157.788C24.3298 158.658 21.9252 159.563 19.658 160.559C18.9023 160.857 18.1809 161.189 17.4595 161.555C17.0358 161.738 16.6465 161.944 16.2229 162.162C15.5588 162.494 14.8946 162.826 14.2649 163.158C13.5664 163.524 12.9137 163.914 12.2725 164.303H12.2381C11.574 164.692 10.9671 165.093 10.3717 165.482C7.95566 167.051 5.90606 168.711 4.31445 170.451C3.92514 170.841 3.55871 171.264 3.22665 171.688C2.89459 172.134 2.23047 171.871 2.23047 171.39C2.23047 171.333 2.26482 171.299 2.26482 171.241L46.0054 1.38578C46.097 1.11099 46.452 1.11099 46.5207 1.38578C46.555 1.53463 46.5779 1.66057 46.6467 1.80942C46.7039 2.04986 46.7955 2.2674 46.8871 2.50785C47.2192 3.32077 47.7001 4.1108 48.3642 4.88937C48.5703 5.12982 48.7879 5.37026 49.0283 5.6107C51.7077 8.35862 56.3222 10.763 62.265 12.5721C62.8032 12.7553 63.3528 12.9041 63.9253 13.053C65.036 13.3507 66.1811 13.6598 67.3948 13.9232C68.0017 14.072 68.5971 14.1979 69.2383 14.3124C70.7154 14.6101 72.2498 14.8849 73.8528 15.1254C74.7918 15.2513 75.7192 15.4002 76.6811 15.4918C78.307 15.6978 79.9673 15.8581 81.6849 15.9726C82.3834 16.0299 83.0475 16.0642 83.7345 16.0986C84.0093 16.1329 84.3071 16.1329 84.6048 16.1558C85.601 16.1902 86.6201 16.2474 87.6506 16.2474C88.4407 16.2818 89.2536 16.2818 90.0323 16.2818C90.8109 16.2818 91.5666 16.2818 92.3567 16.2474C93.4101 16.2474 94.4636 16.1902 95.4941 16.1558C95.7918 16.1215 96.0667 16.1215 96.3415 16.0986C97.0399 16.0642 97.6926 16.0413 98.3567 15.9726C100.04 15.8467 101.7 15.6978 103.303 15.5261C104.299 15.4002 105.261 15.2857 106.223 15.1368C107.792 14.8964 109.326 14.6216 110.838 14.3239C111.445 14.1979 112.04 14.0834 112.647 13.9346C113.849 13.6598 115.029 13.3621 116.139 13.0644C116.586 12.9499 117.078 12.824 117.49 12.6751C124.933 10.4196 130.338 7.28235 132.559 3.66426C132.742 3.42382 132.857 3.14903 132.983 2.90858C133.074 2.75974 133.132 2.61089 133.189 2.4277C133.246 2.24451 133.315 2.09566 133.372 1.91247C133.429 1.76362 133.464 1.61477 133.521 1.43158V1.37433C133.578 1.13389 133.945 1.13389 134.036 1.40868L177.777 171.299C177.777 171.356 177.811 171.425 177.811 171.447L177.8 171.425Z" fill="#85C1DE"/>
</svg>
