<svg width="132" height="132" viewBox="0 0 132 132" fill="none" xmlns="http://www.w3.org/2000/svg">
<path d="M132 0V131.992L131.009 128.054C131.009 128.054 131.009 128.012 130.984 127.986C130.631 127.298 130.186 126.618 129.657 125.955C129.926 126.282 130.388 126.089 130.388 125.711C130.388 125.686 130.362 125.644 130.362 125.602L98.2861 1.01597C98.2189 0.814452 97.9586 0.814452 97.9082 0.990776C97.9754 0.65492 98.0174 0.32746 98.0174 0H131.992H132Z" fill="#3676B6"/>
<path d="M97.916 0.990777C97.9832 0.65492 98.0252 0.32746 98.0252 0L98.2938 1.01597C98.2267 0.814452 97.9664 0.814452 97.916 0.990777Z" fill="#3676B6"/>
<path d="M2.36795 125.913C1.85574 126.576 1.4191 127.239 1.06643 127.928V127.953L0.0251899 132H0V0H33.9994C33.9994 0.352649 34.0413 0.688506 34.1085 1.01597C34.0665 0.814452 33.7978 0.814452 33.7306 1.01597L1.6542 125.577C1.6542 125.619 1.62901 125.644 1.62901 125.686C1.62901 126.039 2.11603 126.24 2.35955 125.904L2.36795 125.913Z" fill="#3676B6"/>
<path d="M33.7388 1.01597L33.9992 0C33.9992 0.352649 34.0411 0.688506 34.1083 1.01597C34.0663 0.814452 33.7976 0.814452 33.7305 1.01597H33.7388Z" fill="#3676B6"/>
<path d="M130.388 125.711C130.388 126.089 129.926 126.282 129.657 125.954C129.17 125.333 128.616 124.737 128.003 124.166C127.717 123.881 127.381 123.595 127.029 123.301C126.785 123.083 126.516 122.881 126.256 122.68C125.66 122.193 124.997 121.731 124.266 121.261C123.888 120.992 123.494 120.749 123.074 120.514C122.788 120.354 122.503 120.186 122.192 120.001C121.73 119.733 121.26 119.489 120.756 119.229C118.942 118.297 116.91 117.415 114.719 116.576C114.081 116.332 113.434 116.089 112.771 115.87C110.755 115.165 108.614 114.519 106.355 113.906C104.961 113.528 103.526 113.175 102.048 112.848C101.955 112.822 101.897 112.806 101.804 112.806C101.006 112.629 100.217 112.453 99.3943 112.294C98.5798 112.117 97.7569 111.966 96.9172 111.807C96.0775 111.647 95.2378 111.496 94.3729 111.362C93.508 111.227 92.6515 111.076 91.7614 110.967C90.8797 110.833 89.9897 110.707 89.0828 110.589C87.2522 110.346 85.3881 110.144 83.4904 109.968C82.6927 109.875 81.895 109.808 81.0805 109.749C78.8469 109.573 76.5965 109.439 74.2705 109.33C73.4056 109.288 72.524 109.262 71.6423 109.237C69.7865 109.17 67.9056 109.145 66.0079 109.145C64.1102 109.145 62.2293 109.17 60.3735 109.237C59.5338 109.262 58.6941 109.279 57.8544 109.33C55.5789 109.422 53.3201 109.548 51.1369 109.749C50.23 109.817 49.3483 109.884 48.4582 109.968C47.4422 110.06 46.443 110.169 45.4773 110.278C44.6376 110.371 43.7979 110.48 42.9834 110.589C42.2109 110.681 41.4384 110.791 40.6658 110.9C39.675 111.034 38.6758 111.185 37.7017 111.362C36.0643 111.63 34.4773 111.916 32.9238 112.226C32.017 112.403 31.1353 112.604 30.2704 112.797C29.4727 112.957 28.7002 113.15 27.9276 113.326C25.7192 113.88 23.6368 114.451 21.6467 115.073C20.9833 115.274 20.3452 115.493 19.7238 115.711C17.8429 116.349 16.0795 117.012 14.4169 117.743C13.8627 117.961 13.3337 118.205 12.8047 118.473C12.494 118.608 12.2085 118.759 11.8978 118.918C11.4108 119.162 10.9238 119.405 10.4619 119.649C9.94973 119.917 9.47109 120.203 9.00085 120.488H8.97567C8.48864 120.774 8.0436 121.068 7.60695 121.353C5.83519 122.504 4.33215 123.721 3.16497 124.997C2.87948 125.283 2.61076 125.593 2.36725 125.904C2.12374 126.232 1.63672 126.038 1.63672 125.686C1.63672 125.644 1.66191 125.619 1.66191 125.577L33.7383 1.01588C33.8055 0.814368 34.0658 0.814368 34.1162 1.01588C34.1414 1.12503 34.1582 1.2174 34.2086 1.32655C34.2506 1.50287 34.3177 1.66241 34.3849 1.83873C34.6284 2.43488 34.9811 3.01423 35.4681 3.58518C35.6193 3.76151 35.7788 3.93783 35.9551 4.11416C37.92 6.1293 41.304 7.89254 45.662 9.21918C46.0567 9.35352 46.4598 9.46267 46.8796 9.57183C47.6941 9.79013 48.5338 10.0168 49.4239 10.21C49.8689 10.3191 50.3056 10.4115 50.7758 10.4954C51.859 10.7137 52.9842 10.9153 54.1598 11.0916C54.8483 11.1839 55.5285 11.2931 56.2338 11.3603C57.4262 11.5114 58.6438 11.6289 59.9033 11.7129C60.4155 11.7549 60.9025 11.7801 61.4064 11.8053C61.6079 11.8305 61.8262 11.8305 62.0445 11.8473C62.7751 11.8724 63.5224 11.9144 64.2781 11.9144C64.8575 11.9396 65.4537 11.9396 66.0247 11.9396C66.5957 11.9396 67.1499 11.9396 67.7293 11.9144C68.5018 11.9144 69.2743 11.8724 70.0301 11.8473C70.2484 11.8221 70.4499 11.8221 70.6514 11.8053C71.1637 11.7801 71.6423 11.7633 72.1293 11.7129C73.3636 11.6205 74.5812 11.5114 75.7568 11.3855C76.4873 11.2931 77.1927 11.2091 77.898 11.1C79.0484 10.9236 80.1736 10.7221 81.282 10.5038C81.7271 10.4115 82.1637 10.3275 82.6087 10.2183C83.4904 10.0168 84.3553 9.79853 85.1698 9.58022C85.4973 9.49626 85.8584 9.4039 86.1607 9.29474C91.6187 7.64065 95.5821 5.34003 97.2111 2.68677C97.3454 2.51044 97.4294 2.30893 97.5218 2.1326C97.5889 2.02345 97.6309 1.9143 97.6729 1.77995C97.7149 1.64561 97.7653 1.53646 97.8073 1.40212C97.8492 1.29296 97.8744 1.18381 97.9164 1.04947V1.00749C97.9584 0.83116 98.2271 0.83116 98.2943 1.03267L130.371 125.619C130.371 125.661 130.396 125.711 130.396 125.728L130.388 125.711Z" fill="#85C1DE"/>
</svg>
