<svg width="217" height="217" viewBox="0 0 217 217" fill="none" xmlns="http://www.w3.org/2000/svg">
<path d="M217.002 0V216.986L215.373 210.512C215.373 210.512 215.373 210.443 215.331 210.402C214.752 209.27 214.02 208.152 213.15 207.062C213.592 207.6 214.351 207.283 214.351 206.661C214.351 206.62 214.31 206.551 214.31 206.482L161.578 1.67019C161.468 1.33891 161.04 1.33891 160.957 1.62878C161.067 1.07665 161.136 0.538324 161.136 0H216.988H217.002Z" fill="#3676B6"/>
<path d="M160.969 1.62878C161.079 1.07665 161.148 0.538324 161.148 0L161.59 1.67019C161.479 1.33891 161.052 1.33891 160.969 1.62878Z" fill="#3676B6"/>
<path d="M3.89277 206.993C3.05072 208.083 2.33292 209.174 1.75315 210.305V210.347L0.0414107 217H0V0H55.8929C55.8929 0.579734 55.9619 1.13186 56.0723 1.67019C56.0033 1.33891 55.5616 1.33891 55.4511 1.67019L2.71941 206.441C2.71941 206.51 2.678 206.551 2.678 206.62C2.678 207.2 3.47863 207.531 3.87895 206.979L3.89277 206.993Z" fill="#3676B6"/>
<path d="M55.4669 1.67019L55.8948 0C55.8948 0.579734 55.9638 1.13186 56.0742 1.67019C56.0052 1.33891 55.5636 1.33891 55.4531 1.67019H55.4669Z" fill="#3676B6"/>
<path d="M214.35 206.661C214.35 207.282 213.591 207.6 213.149 207.062C212.348 206.04 211.437 205.06 210.43 204.122C209.96 203.652 209.408 203.183 208.828 202.7C208.428 202.341 207.986 202.01 207.558 201.678C206.578 200.878 205.488 200.119 204.287 199.346C203.665 198.904 203.017 198.504 202.327 198.117C201.857 197.855 201.388 197.579 200.877 197.275C200.118 196.833 199.345 196.433 198.517 196.005C195.535 194.473 192.194 193.024 188.591 191.643C187.542 191.243 186.479 190.843 185.389 190.484C182.076 189.324 178.556 188.262 174.843 187.254C172.551 186.633 170.191 186.053 167.761 185.515C167.609 185.473 167.513 185.446 167.361 185.446C166.049 185.156 164.752 184.866 163.399 184.604C162.06 184.314 160.707 184.065 159.327 183.803C157.946 183.541 156.566 183.292 155.144 183.072C153.722 182.851 152.314 182.602 150.851 182.423C149.402 182.202 147.938 181.995 146.447 181.802C143.438 181.401 140.374 181.07 137.254 180.78C135.943 180.628 134.631 180.518 133.292 180.421C129.62 180.132 125.921 179.911 122.097 179.731C120.675 179.662 119.226 179.621 117.776 179.579C114.726 179.469 111.633 179.428 108.514 179.428C105.394 179.428 102.302 179.469 99.2512 179.579C97.8708 179.621 96.4903 179.648 95.1099 179.731C91.369 179.883 87.6557 180.09 84.0666 180.421C82.5758 180.532 81.1264 180.642 79.6632 180.78C77.9929 180.932 76.3502 181.112 74.7627 181.291C73.3823 181.443 72.0019 181.622 70.6629 181.802C69.3929 181.954 68.1229 182.133 66.8529 182.312C65.224 182.533 63.5813 182.782 61.9801 183.072C59.2883 183.513 56.6793 183.983 54.1256 184.493C52.6347 184.783 51.1853 185.115 49.7634 185.432C48.4521 185.694 47.1821 186.012 45.9121 186.302C42.2816 187.213 38.8582 188.151 35.5866 189.173C34.4961 189.504 33.447 189.863 32.4255 190.222C29.3334 191.271 26.4345 192.361 23.7013 193.562C22.7902 193.921 21.9205 194.321 21.0509 194.763C20.5401 194.984 20.0708 195.232 19.56 195.495C18.7594 195.895 17.9588 196.295 17.1995 196.695C16.3575 197.137 15.5706 197.606 14.7976 198.076H14.7562C13.9556 198.545 13.2239 199.028 12.5061 199.497C9.59344 201.388 7.12254 203.39 5.20377 205.488C4.73443 205.957 4.29268 206.468 3.89236 206.979C3.49204 207.517 2.69141 207.2 2.69141 206.62C2.69141 206.551 2.73282 206.509 2.73282 206.44L55.4645 1.67009C55.5749 1.33881 56.0029 1.33881 56.0857 1.67009C56.1271 1.84953 56.1548 2.00136 56.2376 2.18081C56.3066 2.47067 56.417 2.73293 56.5275 3.0228C56.9278 4.00283 57.5076 4.95525 58.3082 5.89387C58.5567 6.18373 58.8189 6.4736 59.1088 6.76347C62.339 10.0762 67.902 12.9749 75.0664 15.1558C75.7152 15.3767 76.3778 15.5561 77.068 15.7355C78.407 16.0944 79.7874 16.4671 81.2506 16.7846C81.9822 16.964 82.7 17.1159 83.4731 17.2539C85.2538 17.6128 87.1036 17.9441 89.0361 18.2339C90.1681 18.3858 91.2862 18.5652 92.4457 18.6756C94.4059 18.9241 96.4075 19.1173 98.4781 19.2554C99.3202 19.3244 100.121 19.3658 100.949 19.4072C101.28 19.4486 101.639 19.4486 101.998 19.4762C103.199 19.5176 104.428 19.5866 105.67 19.5866C106.623 19.628 107.603 19.628 108.541 19.628C109.48 19.628 110.391 19.628 111.344 19.5866C112.614 19.5866 113.884 19.5176 115.126 19.4762C115.485 19.4348 115.816 19.4348 116.147 19.4072C116.989 19.3658 117.776 19.3382 118.577 19.2554C120.606 19.1035 122.608 18.9241 124.54 18.717C125.741 18.5652 126.901 18.4272 128.06 18.2477C129.952 17.9579 131.801 17.6266 133.623 17.2677C134.355 17.1159 135.073 16.9778 135.804 16.7984C137.254 16.4671 138.676 16.1082 140.015 15.7493C140.553 15.6113 141.147 15.4595 141.644 15.28C150.616 12.5608 157.132 8.77873 159.81 4.41692C160.031 4.12706 160.169 3.79578 160.321 3.50591C160.431 3.32647 160.5 3.14703 160.569 2.92618C160.638 2.70533 160.721 2.52589 160.79 2.30504C160.859 2.12559 160.9 1.94615 160.969 1.7253V1.65629C161.038 1.36642 161.48 1.36642 161.591 1.69769L214.322 206.509C214.322 206.578 214.364 206.661 214.364 206.689L214.35 206.661Z" fill="#85C1DE"/>
</svg>
