<svg width="32" height="32" viewBox="0 0 32 32" fill="none" xmlns="http://www.w3.org/2000/svg">
<path d="M6.5373 1.47656L1.47656 6.53514V4.52269L4.52592 1.47764L6.5373 1.47656Z" fill="#3676B6"/>
<path d="M23.4633 16.4219C19.5654 16.4219 16.4062 19.5811 16.4062 23.4789C16.4062 27.3768 19.5654 30.5359 23.4633 30.5359C27.3611 30.5359 30.5203 27.3768 30.5203 23.4789C30.5203 19.5811 27.3611 16.4219 23.4633 16.4219Z" fill="#85C1DE"/>
<path d="M7.78458 1.47656L1.47266 7.78418L1.47481 6.53407L6.53555 1.47656H7.78458Z" fill="#85C1DE"/>
<path d="M15.5915 12.4883V13.7362L13.7362 15.5893H12.4883L15.5915 12.4883Z" fill="#85C1DE"/>
<path d="M15.5829 7.53418V8.78106L8.77139 15.5894H7.52344L15.5829 7.53418Z" fill="#85C1DE"/>
<path d="M15.5882 2.5459V3.79278L3.78594 15.5897H2.53906L15.5882 2.5459Z" fill="#85C1DE"/>
<path d="M12.9192 1.47656L1.47764 12.9117L1.47656 11.6626L11.6583 1.47656H12.9192Z" fill="#85C1DE"/>
<path d="M15.5905 10.4746V12.4881L12.4883 15.5892H10.4727L15.5905 10.4746Z" fill="#3676B6"/>
<path d="M15.5837 5.52246V7.53491L7.52417 15.5901H5.51172L15.5837 5.52246Z" fill="#3676B6"/>
<path d="M15.5874 1.47656V2.54578L2.53824 15.5896H1.47656V14.6377L14.6463 1.47656H15.5874Z" fill="#3676B6"/>
<path d="M11.6583 1.47656L1.47979 11.6605L1.47656 11.6626V9.65234L9.6588 1.47656H11.6583Z" fill="#3676B6"/>
<path d="M15.5939 16.4092V30.5211H8.53906L8.64997 30.0872L12.1709 16.4113V16.4092H15.5939Z" fill="#85C1DE"/>
<path d="M1.48047 16.4092V30.5211H8.53427L8.42337 30.0872L4.90239 16.4113V16.4092H1.48047Z" fill="#85C1DE"/>
<path d="M15.5899 16.4092V17.6851C13.6991 17.6851 12.168 17.1134 12.168 16.4092H15.5899Z" fill="#3676B6"/>
<path d="M8.64949 30.0878C8.57411 30.2289 8.53643 30.3721 8.53643 30.5196C8.53643 30.3721 8.49874 30.2278 8.42337 30.0878C7.83008 28.9486 4.94653 28.084 1.48047 28.084V30.5228H15.5935V28.084C12.1263 28.084 9.24278 28.9486 8.65056 30.0878H8.64949Z" fill="#3676B6"/>
<path d="M1.48047 16.4092V17.6851C3.37125 17.6851 4.90239 17.1134 4.90239 16.4092H1.48047Z" fill="#3676B6"/>
<path d="M23.4605 27.2365C21.264 27.2365 19.4766 25.4491 19.4766 23.2525C19.4766 21.056 21.264 19.2686 23.4605 19.2686V27.2354V27.2365Z" fill="#3676B6"/>
<path d="M30.3501 14.9181C30.3533 14.959 30.3005 14.9795 30.2725 14.944C30.2209 14.8772 30.1616 14.8137 30.0949 14.7523C30.0636 14.7211 30.0292 14.6909 29.9904 14.6597C29.9646 14.636 29.9366 14.6145 29.9075 14.594C29.844 14.5423 29.7729 14.4928 29.6943 14.4422C29.6545 14.4142 29.6114 14.3884 29.5662 14.3614C29.535 14.3453 29.5048 14.3259 29.4714 14.3076C29.4219 14.2796 29.3724 14.2538 29.3175 14.2247C29.1236 14.1256 28.9061 14.0309 28.6725 13.9415C28.6036 13.9157 28.5357 13.8898 28.4647 13.8661C28.2493 13.7908 28.02 13.7218 27.7788 13.6562C27.6302 13.6163 27.4762 13.5786 27.3179 13.5431C27.3082 13.5409 27.3018 13.5388 27.2921 13.5388C27.207 13.5194 27.122 13.5011 27.0347 13.485C26.9475 13.4656 26.8603 13.4494 26.7699 13.4333C26.6805 13.4171 26.59 13.3999 26.4985 13.3859C26.407 13.3719 26.3144 13.3547 26.2196 13.3428C26.1249 13.3288 26.0301 13.3148 25.9332 13.303C25.7373 13.2771 25.5381 13.2556 25.3356 13.2373C25.2506 13.2276 25.1655 13.2212 25.0783 13.2136C24.8392 13.1942 24.5981 13.1802 24.3504 13.1684C24.2578 13.1641 24.1641 13.1609 24.0694 13.1587C23.8712 13.1512 23.6699 13.149 23.4664 13.149C23.2629 13.149 23.0626 13.1512 22.8634 13.1587C22.774 13.1609 22.6836 13.163 22.5942 13.1684C22.3509 13.1781 22.1097 13.1921 21.876 13.2136C21.7791 13.2212 21.6844 13.2276 21.5896 13.2373C21.4809 13.247 21.3743 13.2588 21.2709 13.2707C21.1815 13.2804 21.0911 13.2922 21.0039 13.3041C20.9209 13.3138 20.838 13.3256 20.7562 13.3374C20.6496 13.3514 20.543 13.3687 20.4396 13.387C20.2652 13.415 20.0951 13.4462 19.9293 13.4796C19.8323 13.499 19.7376 13.5194 19.6461 13.5409C19.561 13.5571 19.4781 13.5786 19.3952 13.598C19.1583 13.6572 18.9365 13.7186 18.7244 13.7843C18.6533 13.8058 18.5844 13.8295 18.5187 13.8532C18.3174 13.9221 18.1289 13.9921 17.9513 14.0707C17.892 14.0944 17.835 14.1202 17.779 14.1482C17.7456 14.1622 17.7155 14.1795 17.6821 14.1956C17.6304 14.2215 17.5776 14.2473 17.5281 14.2731C17.4743 14.3011 17.4215 14.3324 17.372 14.3625H17.3698C17.3181 14.3937 17.2708 14.4239 17.2234 14.4551C17.0339 14.5779 16.8734 14.7081 16.7485 14.8449C16.7173 14.8761 16.6893 14.9084 16.6635 14.9418C16.6387 14.9773 16.5859 14.9558 16.5859 14.9181C16.5859 14.9138 16.5881 14.9106 16.5881 14.9063L20.0175 1.58792C20.0229 1.56639 20.0531 1.56639 20.0574 1.58792C20.0595 1.59976 20.0789 1.65683 20.0854 1.67514C20.1112 1.73867 20.1489 1.80004 20.2017 1.86142C20.2178 1.8808 20.2351 1.8991 20.2534 1.91848C20.4633 2.13383 20.8251 2.32227 21.2913 2.4644C21.3344 2.47839 21.3764 2.49024 21.4216 2.50208C21.5088 2.52577 21.5993 2.54946 21.693 2.571C21.7404 2.58284 21.7877 2.59253 21.8373 2.60222C21.9535 2.62591 22.0741 2.64744 22.199 2.66575C22.2723 2.67544 22.3455 2.68728 22.4209 2.69375C22.549 2.7099 22.6782 2.72174 22.8128 2.73143C22.8666 2.73574 22.9194 2.73897 22.9732 2.74112C22.9948 2.74328 23.0185 2.74328 23.0421 2.74543C23.1197 2.74758 23.2004 2.75297 23.2812 2.75297C23.3426 2.75512 23.4061 2.75512 23.4675 2.75512C23.5288 2.75512 23.5881 2.75512 23.6494 2.75297C23.7323 2.75297 23.8153 2.74866 23.8949 2.74543C23.9186 2.74328 23.9402 2.74328 23.9606 2.74112C24.0145 2.73897 24.0672 2.73682 24.1189 2.73143C24.2513 2.72174 24.3816 2.7099 24.5065 2.6959C24.5841 2.68621 24.6605 2.67652 24.7359 2.66467C24.8586 2.64529 24.9792 2.62483 25.0977 2.60114C25.145 2.59145 25.1924 2.58176 25.2398 2.56992C25.3345 2.54838 25.4261 2.52469 25.5144 2.50101C25.5499 2.49132 25.5876 2.48162 25.621 2.46978C26.2046 2.29212 26.6277 2.04662 26.8032 1.76343C26.8463 1.69344 26.8786 1.58577 26.8786 1.58361C26.8829 1.56423 26.912 1.56423 26.9185 1.58577L30.3479 14.9073C30.3501 14.9149 30.3501 14.917 30.3501 14.9192V14.9181Z" fill="#85C1DE"/>
<path d="M16.6632 14.9403C16.6094 15.0113 16.4123 15.5906 16.4123 15.5906H16.4102V1.47656H20.0453C20.0453 1.51425 20.0463 1.55086 20.0571 1.58531C20.0507 1.56486 20.0237 1.56378 20.0173 1.58531L16.5878 14.9037C16.5878 14.9037 16.5857 14.9112 16.5857 14.9155C16.5857 14.9532 16.6374 14.9747 16.6632 14.9392V14.9403Z" fill="#3676B6"/>
<path d="M30.5198 1.47656V15.5896C30.5198 15.5896 30.326 15.0156 30.2689 14.9446C30.2969 14.9801 30.3464 14.9586 30.3464 14.9187C30.3464 14.9166 30.3443 14.9112 30.3443 14.9069L26.9148 1.58531C26.9073 1.56378 26.8793 1.56378 26.875 1.58316C26.8825 1.54763 26.8868 1.5121 26.8868 1.47656H30.5198Z" fill="#3676B6"/>
<path d="M31.2904 0H0.708503C0.316565 0 0 0.316565 0 0.708503V31.2904C0 31.6824 0.316565 32 0.708503 32H31.2904C31.6834 32 32 31.6813 32 31.2904V0.708503C32 0.316565 31.6834 0 31.2904 0ZM31.2904 31.2904H0.708503V0.708503H31.2904V31.2904Z" fill="#3676B6"/>
</svg>
