<svg width="164" height="164" viewBox="0 0 164 164" fill="none" xmlns="http://www.w3.org/2000/svg">
<path d="M163.997 0V163.99L162.766 159.097C162.766 159.097 162.766 159.045 162.735 159.014C162.296 158.158 161.744 157.313 161.086 156.489C161.42 156.896 161.994 156.656 161.994 156.186C161.994 156.155 161.963 156.103 161.963 156.051L122.11 1.26226C122.027 1.01189 121.703 1.01189 121.641 1.23096C121.724 0.813689 121.776 0.406844 121.776 0H163.987H163.997Z" fill="#3676B6"/>
<path d="M121.652 1.23096C121.736 0.813689 121.788 0.406844 121.788 0L122.122 1.26226C122.038 1.01189 121.715 1.01189 121.652 1.23096Z" fill="#3676B6"/>
<path d="M2.942 156.437C2.30561 157.261 1.76313 158.085 1.32496 158.941V158.972L0.0312965 164H0V0H42.2416C42.2416 0.43814 42.2938 0.855416 42.3772 1.26226C42.3251 1.01189 41.9912 1.01189 41.9078 1.26226L2.05522 156.02C2.05522 156.072 2.02393 156.103 2.02393 156.155C2.02393 156.593 2.62901 156.844 2.93156 156.426L2.942 156.437Z" fill="#3676B6"/>
<path d="M41.9167 1.26226L42.2401 0C42.2401 0.43814 42.2922 0.855416 42.3757 1.26226C42.3235 1.01189 41.9897 1.01189 41.9062 1.26226H41.9167Z" fill="#3676B6"/>
<path d="M161.994 156.186C161.994 156.656 161.421 156.896 161.087 156.489C160.482 155.717 159.793 154.976 159.031 154.267C158.677 153.912 158.26 153.557 157.821 153.192C157.519 152.921 157.185 152.671 156.861 152.42C156.121 151.815 155.297 151.242 154.389 150.657C153.919 150.324 153.429 150.021 152.908 149.729C152.553 149.531 152.198 149.322 151.812 149.093C151.238 148.759 150.654 148.456 150.028 148.133C147.775 146.975 145.25 145.88 142.527 144.836C141.734 144.534 140.931 144.231 140.107 143.96C137.603 143.084 134.943 142.281 132.136 141.519C130.404 141.05 128.62 140.611 126.784 140.205C126.67 140.173 126.597 140.152 126.482 140.152C125.491 139.933 124.51 139.714 123.488 139.516C122.476 139.297 121.453 139.109 120.41 138.911C119.367 138.713 118.323 138.525 117.249 138.358C116.174 138.191 115.11 138.003 114.004 137.868C112.909 137.701 111.803 137.544 110.676 137.398C108.402 137.096 106.086 136.845 103.728 136.626C102.737 136.512 101.746 136.428 100.734 136.355C97.959 136.136 95.1631 135.969 92.2733 135.834C91.1987 135.781 90.1033 135.75 89.0079 135.719C86.7023 135.635 84.3654 135.604 82.0076 135.604C79.6498 135.604 77.3129 135.635 75.0073 135.719C73.964 135.75 72.9208 135.771 71.8775 135.834C69.0503 135.948 66.2439 136.105 63.5314 136.355C62.4047 136.439 61.3093 136.522 60.2035 136.626C58.9411 136.741 57.6996 136.877 56.4999 137.012C55.4566 137.127 54.4133 137.263 53.4014 137.398C52.4416 137.513 51.4818 137.649 50.522 137.784C49.2909 137.951 48.0494 138.139 46.8393 138.358C44.8049 138.692 42.8332 139.047 40.9031 139.433C39.7764 139.652 38.681 139.902 37.6064 140.142C36.6153 140.34 35.6555 140.58 34.6957 140.799C31.952 141.488 29.3647 142.197 26.8921 142.969C26.068 143.219 25.2751 143.491 24.5031 143.762C22.1662 144.555 19.9753 145.379 17.9097 146.286C17.2211 146.558 16.5639 146.86 15.9066 147.194C15.5206 147.361 15.1659 147.549 14.7799 147.747C14.1748 148.049 13.5697 148.352 12.9959 148.654C12.3595 148.988 11.7649 149.343 11.1806 149.698H11.1493C10.5442 150.052 9.99131 150.417 9.44882 150.772C7.24754 152.201 5.38012 153.714 3.92999 155.3C3.57528 155.654 3.24143 156.04 2.93888 156.426C2.63634 156.833 2.03125 156.593 2.03125 156.155C2.03125 156.103 2.06255 156.071 2.06255 156.019L41.9151 1.26199C41.9985 1.01163 42.322 1.01163 42.3846 1.26199C42.4159 1.39761 42.4367 1.51236 42.4993 1.64797C42.5515 1.86704 42.6349 2.06525 42.7184 2.28432C43.021 3.02499 43.4591 3.74479 44.0642 4.45416C44.252 4.67323 44.4502 4.8923 44.6693 5.11137C47.1105 7.61502 51.3149 9.80572 56.7294 11.454C57.2197 11.6209 57.7205 11.7565 58.2421 11.8921C59.2541 12.1633 60.2973 12.445 61.4032 12.6849C61.9561 12.8205 62.4986 12.9353 63.0828 13.0396C64.4286 13.3108 65.8266 13.5612 67.2872 13.7803C68.1426 13.895 68.9877 14.0306 69.864 14.1141C71.3455 14.3019 72.8582 14.4479 74.4231 14.5522C75.0595 14.6044 75.6646 14.6357 76.2905 14.667C76.5409 14.6983 76.8122 14.6983 77.0834 14.7192C77.991 14.7504 78.9195 14.8026 79.8585 14.8026C80.5783 14.8339 81.319 14.8339 82.0284 14.8339C82.7379 14.8339 83.4264 14.8339 84.1463 14.8026C85.1061 14.8026 86.0658 14.7504 87.0048 14.7192C87.276 14.6879 87.5264 14.6879 87.7768 14.667C88.4132 14.6357 89.0078 14.6148 89.6129 14.5522C91.1465 14.4375 92.6593 14.3019 94.1198 14.1454C95.0275 14.0306 95.9038 13.9263 96.7802 13.7907C98.2094 13.5716 99.6074 13.3213 100.984 13.05C101.537 12.9353 102.08 12.831 102.633 12.6954C103.728 12.445 104.803 12.1738 105.815 11.9025C106.222 11.7982 106.67 11.6835 107.046 11.5479C113.827 9.49277 118.751 6.63442 120.775 3.33794C120.942 3.11887 121.046 2.86851 121.161 2.64944C121.245 2.51382 121.297 2.37821 121.349 2.2113C121.401 2.04439 121.464 1.90877 121.516 1.74186C121.568 1.60625 121.599 1.47063 121.651 1.30372V1.25156C121.704 1.03249 122.037 1.03249 122.121 1.28286L161.973 156.071C161.973 156.124 162.005 156.186 162.005 156.207L161.994 156.186Z" fill="#85C1DE"/>
</svg>
