<svg width="220" height="220" viewBox="0 0 220 220" fill="none" xmlns="http://www.w3.org/2000/svg">
<path d="M220.005 0V219.993L218.353 213.43C218.353 213.43 218.353 213.36 218.311 213.318C217.724 212.17 216.982 211.037 216.1 209.931C216.548 210.477 217.318 210.155 217.318 209.525C217.318 209.483 217.276 209.413 217.276 209.343L163.813 1.69333C163.701 1.35746 163.268 1.35746 163.184 1.65135C163.296 1.09157 163.366 0.545784 163.366 0H219.991H220.005Z" fill="#3676B6"/>
<path d="M163.199 1.65135C163.311 1.09157 163.381 0.545784 163.381 0L163.829 1.69333C163.717 1.35746 163.283 1.35746 163.199 1.65135Z" fill="#3676B6"/>
<path d="M3.94671 209.861C3.09299 210.967 2.36525 212.072 1.77744 213.22V213.262L0.0419845 220.007H0V0H56.6674C56.6674 0.587768 56.7374 1.14755 56.8493 1.69333C56.7793 1.35746 56.3315 1.35746 56.2195 1.69333L2.7571 209.301C2.7571 209.371 2.71511 209.413 2.71511 209.483C2.71511 210.071 3.52684 210.407 3.9327 209.847L3.94671 209.861Z" fill="#3676B6"/>
<path d="M56.2327 1.69333L56.6666 0C56.6666 0.587768 56.7365 1.14755 56.8485 1.69333C56.7785 1.35746 56.3307 1.35746 56.2188 1.69333H56.2327Z" fill="#3676B6"/>
<path d="M217.318 209.525C217.318 210.155 216.548 210.477 216.101 209.931C215.289 208.895 214.365 207.902 213.343 206.95C212.868 206.474 212.308 205.999 211.72 205.509C211.314 205.145 210.866 204.809 210.432 204.473C209.439 203.661 208.333 202.892 207.115 202.108C206.486 201.66 205.828 201.254 205.128 200.863C204.652 200.597 204.176 200.317 203.659 200.009C202.889 199.561 202.105 199.155 201.265 198.721C198.242 197.168 194.855 195.699 191.203 194.299C190.139 193.893 189.061 193.487 187.956 193.124C184.597 191.948 181.028 190.871 177.263 189.849C174.94 189.219 172.547 188.631 170.084 188.086C169.93 188.044 169.832 188.016 169.678 188.016C168.348 187.722 167.033 187.428 165.661 187.162C164.303 186.868 162.932 186.616 161.532 186.35C160.133 186.084 158.733 185.833 157.292 185.609C155.85 185.385 154.423 185.133 152.939 184.951C151.47 184.727 149.986 184.517 148.475 184.321C145.424 183.915 142.317 183.579 139.154 183.286C137.824 183.132 136.495 183.02 135.137 182.922C131.414 182.628 127.664 182.404 123.787 182.222C122.345 182.152 120.876 182.11 119.406 182.068C116.313 181.956 113.178 181.914 110.015 181.914C106.852 181.914 103.717 181.956 100.624 182.068C99.2248 182.11 97.8253 182.138 96.4258 182.222C92.633 182.376 88.8682 182.586 85.2294 182.922C83.7179 183.034 82.2485 183.146 80.765 183.286C79.0715 183.439 77.406 183.621 75.7966 183.803C74.397 183.957 72.9975 184.139 71.6399 184.321C70.3523 184.475 69.0648 184.657 67.7772 184.839C66.1257 185.063 64.4603 185.315 62.8368 185.609C60.1077 186.056 57.4626 186.532 54.8735 187.05C53.3619 187.344 51.8924 187.68 50.4509 188.002C49.1213 188.268 47.8337 188.589 46.5462 188.883C42.8654 189.807 39.3945 190.759 36.0776 191.794C34.972 192.13 33.9083 192.494 32.8727 192.858C29.7377 193.921 26.7987 195.027 24.0276 196.244C23.1039 196.608 22.2221 197.014 21.3404 197.462C20.8226 197.686 20.3468 197.938 19.8289 198.204C19.0172 198.609 18.2055 199.015 17.4357 199.421C16.582 199.869 15.7843 200.345 15.0005 200.821H14.9585C14.1468 201.296 13.405 201.786 12.6773 202.262C9.72424 204.179 7.2191 206.208 5.27374 208.336C4.79789 208.811 4.35002 209.329 3.94416 209.847C3.53829 210.393 2.72656 210.071 2.72656 209.483C2.72656 209.413 2.76855 209.371 2.76855 209.301L56.231 1.69331C56.3429 1.35744 56.7768 1.35744 56.8608 1.69331C56.9028 1.87523 56.9308 2.02917 57.0147 2.2111C57.0847 2.50499 57.1967 2.77088 57.3086 3.06476C57.7145 4.05837 58.3023 5.02399 59.1141 5.97561C59.366 6.2695 59.6319 6.56338 59.9258 6.85727C63.2007 10.2159 68.8408 13.1548 76.1045 15.3659C76.7622 15.5898 77.434 15.7717 78.1338 15.9537C79.4914 16.3175 80.8909 16.6954 82.3744 17.0172C83.1162 17.1992 83.8439 17.3531 84.6277 17.4931C86.4331 17.8569 88.3084 18.1928 90.2678 18.4867C91.4154 18.6406 92.5491 18.8225 93.7247 18.9345C95.712 19.1864 97.7413 19.3823 99.8407 19.5223C100.694 19.5922 101.506 19.6342 102.346 19.6762C102.682 19.7182 103.046 19.7182 103.41 19.7462C104.627 19.7882 105.873 19.8581 107.132 19.8581C108.098 19.9001 109.092 19.9001 110.043 19.9001C110.995 19.9001 111.919 19.9001 112.884 19.8581C114.172 19.8581 115.46 19.7882 116.719 19.7462C117.083 19.7042 117.419 19.7042 117.755 19.6762C118.609 19.6342 119.406 19.6062 120.218 19.5223C122.275 19.3683 124.305 19.1864 126.264 18.9765C127.482 18.8225 128.657 18.6826 129.833 18.5007C131.75 18.2068 133.626 17.8709 135.473 17.5071C136.215 17.3531 136.942 17.2132 137.684 17.0312C139.154 16.6954 140.595 16.3315 141.953 15.9677C142.499 15.8277 143.1 15.6738 143.604 15.4919C152.701 12.7349 159.307 8.90046 162.022 4.47821C162.246 4.18432 162.386 3.84845 162.54 3.55457C162.652 3.37264 162.722 3.19071 162.792 2.9668C162.862 2.74289 162.946 2.56096 163.016 2.33705C163.086 2.15512 163.128 1.9732 163.198 1.74928V1.67931C163.268 1.38543 163.716 1.38543 163.828 1.7213L217.29 209.371C217.29 209.441 217.332 209.525 217.332 209.553L217.318 209.525Z" fill="white"/>
</svg>
