<svg width="200" height="200" viewBox="0 0 200 200" fill="none" xmlns="http://www.w3.org/2000/svg">
<path d="M200 0V199.987L198.499 194.021C198.499 194.021 198.499 193.957 198.46 193.919C197.926 192.876 197.252 191.845 196.45 190.84C196.857 191.336 197.557 191.044 197.557 190.471C197.557 190.433 197.519 190.37 197.519 190.306L148.918 1.53934C148.816 1.23402 148.422 1.23402 148.346 1.50118C148.447 0.992303 148.511 0.496152 148.511 0H199.987H200Z" fill="#3676B6"/>
<path d="M148.359 1.50118C148.461 0.992303 148.525 0.496152 148.525 0L148.932 1.53934C148.83 1.23402 148.436 1.23402 148.359 1.50118Z" fill="#3676B6"/>
<path d="M3.58781 190.777C2.81172 191.782 2.15016 192.787 1.61581 193.83V193.868L0.0381665 200H0V0H51.5142C51.5142 0.534317 51.5778 1.04319 51.6795 1.53934C51.6159 1.23402 51.2088 1.23402 51.107 1.53934L2.50637 190.268C2.50637 190.331 2.4682 190.37 2.4682 190.433C2.4682 190.967 3.20611 191.273 3.57507 190.764L3.58781 190.777Z" fill="#3676B6"/>
<path d="M51.1201 1.53934L51.5145 0C51.5145 0.534317 51.5781 1.04319 51.6799 1.53934C51.6163 1.23402 51.2092 1.23402 51.1074 1.53934H51.1201Z" fill="#3676B6"/>
<path d="M197.557 190.472C197.557 191.044 196.858 191.337 196.451 190.84C195.713 189.899 194.873 188.996 193.944 188.131C193.512 187.698 193.003 187.266 192.468 186.82C192.099 186.49 191.692 186.184 191.298 185.879C190.395 185.141 189.389 184.441 188.283 183.729C187.71 183.322 187.112 182.953 186.476 182.597C186.043 182.355 185.611 182.101 185.14 181.821C184.44 181.414 183.728 181.045 182.964 180.65C180.216 179.238 177.137 177.902 173.817 176.63C172.85 176.261 171.87 175.892 170.865 175.562C167.812 174.493 164.568 173.513 161.145 172.585C159.033 172.012 156.858 171.478 154.618 170.982C154.478 170.944 154.389 170.918 154.249 170.918C153.041 170.651 151.845 170.384 150.598 170.142C149.364 169.875 148.117 169.646 146.845 169.404C145.573 169.162 144.3 168.933 142.99 168.73C141.679 168.526 140.382 168.297 139.033 168.132C137.697 167.928 136.349 167.738 134.975 167.56C132.201 167.191 129.377 166.885 126.501 166.618C125.293 166.478 124.084 166.376 122.85 166.287C119.466 166.02 116.056 165.817 112.532 165.651C111.221 165.588 109.885 165.549 108.549 165.511C105.738 165.41 102.888 165.371 100.013 165.371C97.1373 165.371 94.2874 165.41 91.4756 165.511C90.2034 165.549 88.9311 165.575 87.6588 165.651C84.211 165.791 80.7886 165.982 77.4807 166.287C76.1066 166.389 74.7708 166.491 73.4222 166.618C71.8827 166.758 70.3687 166.923 68.9056 167.089C67.6333 167.229 66.3611 167.394 65.127 167.56C63.9565 167.699 62.786 167.865 61.6155 168.03C60.1142 168.234 58.6002 168.463 57.1244 168.73C54.6435 169.137 52.2389 169.57 49.8852 170.04C48.5112 170.307 47.1753 170.613 45.8648 170.905C44.6562 171.147 43.4857 171.44 42.3152 171.707C38.9691 172.546 35.8139 173.412 32.7986 174.353C31.7935 174.658 30.8266 174.989 29.8851 175.32C27.0353 176.287 24.3635 177.292 21.8444 178.399C21.0047 178.729 20.2032 179.098 19.4016 179.505C18.9309 179.709 18.4983 179.938 18.0276 180.18C17.2897 180.549 16.5518 180.917 15.852 181.286C15.0759 181.693 14.3507 182.126 13.6383 182.559H13.6001C12.8622 182.991 12.1879 183.436 11.5263 183.869C8.84179 185.612 6.56446 187.456 4.79601 189.39C4.36344 189.823 3.95629 190.293 3.58734 190.764C3.21838 191.26 2.48047 190.968 2.48047 190.433C2.48047 190.37 2.51864 190.332 2.51864 190.268L51.1193 1.53954C51.2211 1.23422 51.6155 1.23422 51.6918 1.53954C51.73 1.70492 51.7554 1.84486 51.8318 2.01025C51.8954 2.27741 51.9972 2.51912 52.0989 2.78628C52.4679 3.68953 53.0023 4.56734 53.7402 5.43242C53.9692 5.69958 54.2109 5.96674 54.4781 6.2339C57.4552 9.28714 62.5824 11.9587 69.1855 13.9688C69.7835 14.1723 70.3942 14.3377 71.0303 14.5031C72.2644 14.8339 73.5367 15.1773 74.8853 15.47C75.5596 15.6353 76.2211 15.7753 76.9336 15.9025C78.5748 16.2333 80.2797 16.5386 82.0609 16.8057C83.1041 16.9457 84.1347 17.1111 85.2034 17.2128C87.01 17.4418 88.8548 17.6199 90.7632 17.7472C91.5393 17.8108 92.2772 17.8489 93.0405 17.8871C93.3459 17.9253 93.6767 17.9253 94.0075 17.9507C95.1143 17.9889 96.2467 18.0525 97.3917 18.0525C98.2696 18.0906 99.1729 18.0907 100.038 18.0907C100.903 18.0907 101.743 18.0906 102.621 18.0525C103.791 18.0525 104.962 17.9889 106.107 17.9507C106.438 17.9125 106.743 17.9125 107.048 17.8871C107.824 17.8489 108.549 17.8235 109.287 17.7472C111.158 17.6072 113.002 17.4418 114.784 17.251C115.89 17.1111 116.959 16.9839 118.028 16.8185C119.771 16.5513 121.476 16.246 123.155 15.9152C123.829 15.7753 124.491 15.6481 125.165 15.4827C126.501 15.1773 127.812 14.8466 129.046 14.5158C129.542 14.3886 130.089 14.2487 130.547 14.0833C138.817 11.5771 144.822 8.09129 147.29 4.07119C147.494 3.80403 147.621 3.4987 147.761 3.23154C147.863 3.06616 147.926 2.90078 147.99 2.69723C148.053 2.49368 148.13 2.32829 148.193 2.12474C148.257 1.95936 148.295 1.79398 148.359 1.59043V1.52682C148.422 1.25966 148.83 1.25966 148.931 1.56498L197.532 190.332C197.532 190.395 197.57 190.472 197.57 190.497L197.557 190.472Z" fill="#85C1DE"/>
</svg>
