<svg width="779" height="120" viewBox="0 0 779 120" fill="none" xmlns="http://www.w3.org/2000/svg">
<path d="M282.035 60.2638L293.756 11.0715H308.705L317.726 48.9177L320.425 60.2638H330.584L316.511 1.22461H285.949L271.891 60.2638H282.035Z" fill="#252526"/>
<path d="M364.46 60.2638V11.0152H366.367V60.2638H376.251V1.17529H354.576V60.2638H364.46Z" fill="#252526"/>
<path d="M406.31 60.2639V37.8251C406.31 28.1471 411.135 9.84691 429.411 9.84691H433.996C441.358 9.84691 446.967 12.6271 451.149 18.3495C454.767 23.2976 456.992 30.3854 457.091 37.3113L455.537 37.3324C455.438 30.7162 453.325 23.9592 449.892 19.2574C446.02 13.9645 440.828 11.3954 433.996 11.3954H429.411C412.371 11.3954 407.864 28.682 407.864 37.8251V60.2639H418.92L418.984 50.0299V47.9324L419.048 37.818C419.048 37.2127 417.804 22.1925 431.531 22.2136H431.87C445.597 22.1925 444.353 37.2057 444.353 37.818L444.417 47.9324H466.974V37.818C466.974 20.8552 457.056 0 433.996 0H429.411C406.352 0 396.434 20.8552 396.434 37.818V60.2569H406.31V60.2639Z" fill="#252526"/>
<path d="M307.475 12.6201H294.985L286.267 49.2416L283.639 60.264H293.925L294.123 59.3841L300.559 30.5613H301.901L308.549 60.264H318.821L307.475 12.6201Z" fill="#252526"/>
<path d="M228.033 18.3987C223.858 14.5346 216.44 12.5708 205.984 12.5708H187.107V60.0457L210.619 60.2709C224.133 59.5601 233.939 49.9947 233.939 37.4943C233.939 28.323 232.01 22.0799 228.033 18.4057V18.3987ZM209.093 50.4592H196.857V23.6143H209.093C217.825 23.6143 223.893 29.0621 223.893 36.9734C223.893 44.8847 217.818 50.4592 209.093 50.4592Z" fill="#252526"/>
<path d="M185.56 60.2641V11.0295H205.991C216.842 11.0295 224.614 13.127 229.1 17.2657C233.409 21.2495 235.507 27.8657 235.507 37.4944C235.507 48.1719 228.817 56.8363 218.785 60.2641H237.711C241.661 56.0621 245.384 50.9028 245.384 37.4944C245.384 12.7188 233.006 1.18262 205.991 1.18262H175.684V60.2641H185.56Z" fill="#252526"/>
<path d="M579.995 60.2638V11.0152H587.384L609.892 60.2638H619.366L593.912 1.17529H570.111V60.2638H579.995Z" fill="#252526"/>
<path d="M542.051 37.8182C542.051 31.033 539.938 24.093 536.399 19.2576C532.527 13.9646 527.335 11.3955 520.503 11.3955H515.918C498.878 11.3955 494.371 28.6822 494.371 37.8252V60.2641H505.434L505.554 37.8252C505.554 37.2199 504.311 22.1997 518.038 22.2208H518.377C532.104 22.1997 530.86 37.2129 530.86 37.8252L530.98 60.2641H542.043V37.8252L542.051 37.8182Z" fill="#252526"/>
<path d="M633.969 60.2638V11.7894H635.531V60.2638H645.407V1.17529H623.273V60.2638H633.969Z" fill="#252526"/>
<path d="M718.33 60.2639V37.8251C718.33 28.1471 723.155 9.84691 741.431 9.84691H746.016C753.377 9.84691 758.987 12.6271 763.169 18.3495C766.786 23.2976 769.011 30.3854 769.11 37.3113L767.556 37.3324C767.457 30.7162 765.345 23.9592 761.911 19.2574C758.04 13.9645 752.847 11.3954 746.016 11.3954H741.431C724.391 11.3954 719.884 28.682 719.884 37.8251V60.2639H730.94L731.004 50.0299V47.9324L731.067 37.818C731.067 37.2127 729.824 22.1925 743.55 22.2136H743.889C757.616 22.1925 756.373 37.2057 756.373 37.818L756.436 47.9324H778.994V37.818C778.994 20.8552 769.075 0 746.016 0H741.431C718.372 0 708.453 20.8552 708.453 37.818V60.2569H718.33V60.2639Z" fill="#252526"/>
<path d="M678.223 60.2638V11.0152H680.131V60.2638H690.014V1.17529H668.34V60.2638H678.223Z" fill="#252526"/>
<path d="M492.824 60.2637V37.8249C492.824 28.1469 497.65 9.84671 515.926 9.84671H520.511C527.872 9.84671 533.482 12.6269 537.664 18.3493C541.387 23.4452 543.612 30.723 543.612 37.8249V60.2637H553.496V37.8249C553.496 20.862 543.577 0.00683594 520.518 0.00683594H515.933C492.874 0.00683594 482.955 20.862 482.955 37.8249V60.2637H492.831H492.824Z" fill="#252526"/>
<path d="M586.388 12.564H581.549V60.2641H591.786V48.0171H592.435L597.783 60.2641H608.183L586.388 12.564Z" fill="#252526"/>
<path d="M137.656 60.2638V11.7964H139.21V60.2638H149.263V1.17529H127.596V60.2638H137.656Z" fill="#252526"/>
<path d="M62.4018 60.2638L66.252 46.5879L67.0009 46.7991L66.2591 46.5668L77.4001 11.0222H91.8968V60.2638H101.78V1.17529H70.1305L51.6211 60.2638H62.4018Z" fill="#252526"/>
<path d="M9.87641 60.2638V11.0222H24.366L35.6554 47.0525L34.9065 47.2847L35.6554 47.0736L39.3714 60.2638H50.138L31.6285 1.17529H0V60.2638H9.87641Z" fill="#252526"/>
<path d="M90.3425 60.2639V12.5708H78.5445L67.7497 47.0174L64.0195 60.2639H74.2774L74.7225 58.6873L79.2863 42.5057H79.9221V60.2639H90.3425Z" fill="#252526"/>
<path d="M34.1645 47.503L23.2214 12.5708H11.4375V60.2639H21.8438V42.5057H22.4937L27.4955 60.2639H37.7534L34.1645 47.503Z" fill="#252526"/>
<path d="M278.072 83.632H324.388L319.189 61.8125H308.895L309.072 62.6079L311.615 74.0807L311.064 75.2983H291.389L290.845 74.0807L292.95 64.5927L292.972 64.5364L293.388 62.6079L293.572 61.8125H283.272L278.072 83.632Z" fill="#989898"/>
<path d="M618.214 78.4727L630.874 107.429H633.968V61.8125H623.272V68.1683H622.792L620.75 63.4102L620.044 61.8125H610.605L618.214 78.4657L617.501 78.7824L618.214 78.4727Z" fill="#989898"/>
<path d="M505.435 61.8122H494.379V87.7281C494.379 89.9875 495.205 95.4705 498.335 100.06C502.256 105.81 508.72 108.604 518.109 108.604H518.321C527.71 108.604 534.174 105.81 538.095 100.06C541.225 95.4635 542.051 89.9804 542.051 87.7211V61.8052H531.002L531.023 65.1626H531.045L531.151 85.2013C530.79 94.2458 523.605 97.3709 518.222 97.4554C512.839 97.3709 505.654 94.2528 505.294 85.2013L505.421 65.1626L505.442 61.8052L505.435 61.8122Z" fill="#989898"/>
<path d="M139.21 61.8125V108.203H137.656V61.8125H127.596V62.9809V63.7199V118.825H149.263V63.7199V62.9809V61.8125H139.21Z" fill="#989898"/>
<path d="M444.629 85.2153C444.268 94.2599 437.084 97.385 431.7 97.4694C426.317 97.385 419.132 94.2669 418.772 85.2153L418.857 71.814V69.7165L418.899 64.332L418.913 61.8122H407.864V87.7281C407.864 89.9875 408.691 95.4705 411.82 100.06C415.741 105.81 422.205 108.604 431.594 108.604H431.806C441.195 108.604 447.66 105.81 451.58 100.06C454.71 95.4635 455.537 89.9804 455.537 87.7211V82.421H457.091V87.7211C457.091 90.1423 456.208 96.0195 452.866 100.925C448.634 107.133 441.746 110.146 431.806 110.146H431.594C421.654 110.146 414.766 107.126 410.535 100.925C407.193 96.0195 406.31 90.1423 406.31 87.7211V61.8052H396.434V87.7211C396.434 94.654 400.531 119.993 431.602 119.993H431.813C462.884 119.993 466.981 94.654 466.981 87.7211V71.8069H444.551L444.636 85.2083L444.629 85.2153Z" fill="#989898"/>
<path d="M581.549 61.8125V108.203H579.995V61.8125H570.111V118.825H591.786V61.8125H581.549Z" fill="#989898"/>
<path d="M543.605 61.8125V87.7284C543.605 90.1496 542.721 96.0268 539.38 100.933C535.148 107.141 528.26 110.153 518.32 110.153H518.108C508.168 110.153 501.28 107.134 497.048 100.933C493.707 96.0268 492.824 90.1496 492.824 87.7284V61.8125H482.947V87.7284C482.947 94.6613 487.045 120 518.115 120H518.327C549.398 120 553.495 94.6613 553.495 87.7284V61.8125H543.612H543.605Z" fill="#989898"/>
<path d="M366.367 61.8125V108.985H364.46V61.8125H354.576V118.825H376.251V61.8125H366.367Z" fill="#989898"/>
<path d="M330.952 61.8125H320.793L332.083 109.203L330.564 109.562L324.757 85.1804H277.706L271.899 109.555L270.38 109.203L281.669 61.8125H271.517L271.319 62.6079L257.953 118.775H279.578L285.95 94.2531L287.123 93.2466H315.332L316.512 94.2531L322.863 118.775H344.509L331.143 62.6079L330.952 61.8125Z" fill="#989898"/>
<path d="M756.648 85.2153C756.288 94.2599 749.103 97.385 743.72 97.4694C738.337 97.385 731.152 94.2669 730.792 85.2153L730.876 71.814V69.7165L730.919 64.332L730.933 61.8122H719.884V87.7281C719.884 89.9875 720.71 95.4705 723.84 100.06C727.761 105.81 734.225 108.604 743.614 108.604H743.826C753.215 108.604 759.679 105.81 763.6 100.06C766.73 95.4635 767.556 89.9804 767.556 87.7211V82.421H769.11V87.7211C769.11 90.1423 768.227 96.0195 764.886 100.925C760.654 107.133 753.766 110.146 743.826 110.146H743.614C733.674 110.146 726.786 107.126 722.554 100.925C719.213 96.0195 718.33 90.1423 718.33 87.7211V61.8052H708.453V87.7211C708.453 94.654 712.551 119.993 743.621 119.993H743.833C774.903 119.993 779.001 94.654 779.001 87.7211V71.8069H756.571L756.655 85.2083L756.648 85.2153Z" fill="#989898"/>
<path d="M635.531 61.8125V108.985H629.851L616.796 79.0991L608.89 61.8125H598.463L599.565 64.3323L623.38 118.825H645.408V61.8125H635.531Z" fill="#989898"/>
<path d="M680.131 61.8125V108.985H678.223V61.8125H668.34V118.825H690.014V61.8125H680.131Z" fill="#989898"/>
<path d="M50.886 101.158L61.9705 61.8125H39.8086L50.886 101.158Z" fill="#989898"/>
<path d="M239.118 65.7682L238.108 64.3886C238.044 64.3253 238.002 64.2408 237.938 64.1774C237.14 63.1076 236.801 62.629 236.801 62.629C236.652 62.3404 236.568 62.0729 236.582 61.8125H218.249C222.163 63.2484 226.38 65.8949 230.174 70.6177C231.637 72.4337 232.795 74.6437 233.615 77.1706C234.413 79.6411 234.823 82.3721 234.823 85.286V108.196H233.268V85.286C233.268 82.5339 232.887 79.9578 232.138 77.6492C231.375 75.2983 230.308 73.2572 228.966 71.589C222.869 63.9944 215.635 62.08 210.626 61.8125H187.122V108.203H185.568V61.8125H175.691V118.811H196.878V71.5257L208.585 71.6313C214.053 71.4201 218.065 73.7639 221.259 77.7477C222.876 79.7608 223.526 83.3786 223.526 85.4761C223.526 90.0652 223.908 118.818 223.908 118.818H244.819L244.65 90.945C244.607 81.9427 245.851 74.1299 239.118 65.7752V65.7682Z" fill="#989898"/>
<path d="M11.4377 61.8125V108.203H9.87641V61.8125H0V62.9809V118.825H21.844V62.9809V61.8125H11.4377Z" fill="#989898"/>
<path d="M91.8965 61.8125V108.203H90.3423V61.8125H79.9219V62.9809V63.7199V118.825H101.78V63.7199V62.9809V61.8125H91.8965Z" fill="#989898"/>
<path d="M73.8398 61.8125H63.5819L50.8867 106.894L38.1915 61.8125H27.9336L28.2656 62.9809L43.8856 118.466H57.8949L72.2149 67.5841L72.2503 67.4715L73.5148 62.9809L73.8398 61.8125Z" fill="#989898"/>
</svg>
