<svg width="1034" height="94" viewBox="0 0 1034 94" fill="none" xmlns="http://www.w3.org/2000/svg">
<path d="M0.107422 6.86158H25.234C31.1955 6.86158 35.7302 8.29889 38.8283 11.1637C41.9263 14.0384 43.4803 18.1645 43.4803 23.5618C43.4803 26.8373 42.8939 29.5457 41.7113 31.6968C40.5386 33.8479 38.7403 35.6763 36.3361 37.1625C38.7501 37.6221 40.7927 38.326 42.4932 39.2745C44.1839 40.2229 45.5619 41.3864 46.6272 42.7651C47.6924 44.1437 48.445 45.6886 48.9043 47.4095C49.3636 49.1303 49.5884 50.9685 49.5884 52.9241C49.5884 55.9649 49.0607 58.6635 47.9954 61.02C46.9301 63.3764 45.4446 65.3515 43.5193 66.9648C41.5941 68.5683 39.2583 69.7807 36.5023 70.5825C33.7463 71.3843 30.6482 71.7851 27.2081 71.7851H0.107422V6.86158ZM16.9757 32.3519H20.0738C25.3512 32.3519 27.99 30.2595 27.99 26.0649C27.99 21.8703 25.3512 19.7778 20.0738 19.7778H16.9757V32.3519ZM16.9757 58.6929H20.6797C24.9212 58.6929 27.9606 58.1453 29.798 57.06C31.6353 55.9747 32.554 54.2147 32.554 51.8094C32.554 49.4041 31.6353 47.6441 29.798 46.5588C27.9606 45.4637 24.9212 44.9259 20.6797 44.9259H16.9757V58.7027V58.6929ZM72.0567 27.6097V52.4939C72.0567 57.9498 74.6954 60.6777 79.9729 60.6777C85.2503 60.6777 87.889 57.9498 87.889 52.4939V27.6097H103.467V55.5054C103.467 61.4795 101.503 65.9577 97.5741 68.9398C93.6454 71.922 87.7815 73.418 79.9729 73.418C72.1642 73.418 66.3003 71.922 62.3716 68.9398C58.4428 65.9577 56.4784 61.4795 56.4784 55.5054V27.6097H72.0567ZM111.296 10.6553C111.296 9.45265 111.52 8.31845 111.98 7.25269C112.439 6.1967 113.064 5.25804 113.876 4.45628C114.677 3.65451 115.605 3.01896 116.671 2.55941C117.736 2.09986 118.87 1.87498 120.072 1.87498C121.274 1.87498 122.407 2.10964 123.473 2.55941C124.538 3.01896 125.466 3.65451 126.268 4.45628C127.069 5.25804 127.704 6.1967 128.164 7.25269C128.623 8.31845 128.848 9.45265 128.848 10.6553C128.848 11.858 128.613 12.9922 128.164 14.0579C127.704 15.1237 127.069 16.0526 126.268 16.8543C125.466 17.6561 124.528 18.2916 123.473 18.7512C122.407 19.2107 121.274 19.4454 120.072 19.4454C118.87 19.4454 117.736 19.2205 116.671 18.7512C115.605 18.2916 114.677 17.6659 113.876 16.8543C113.074 16.0526 112.439 15.1139 111.98 14.0579C111.52 12.9922 111.296 11.858 111.296 10.6553ZM127.91 27.6097V71.7754H112.331V27.6097H127.91ZM152.43 0.320335V71.7851H136.852V0.320335H152.43ZM195.461 0.320335H211.127V71.7851H195.461V66.8768C192.128 71.0714 187.633 73.1638 181.945 73.1638C178.73 73.1638 175.778 72.5576 173.081 71.3549C170.383 70.1523 168.028 68.4901 166.025 66.3586C164.011 64.2368 162.457 61.7435 161.334 58.8689C160.219 56.004 159.653 52.9045 159.653 49.5703C159.653 46.4121 160.18 43.4104 161.246 40.5749C162.311 37.7296 163.816 35.2559 165.761 33.1243C167.715 31.0026 170.051 29.3208 172.778 28.0889C175.504 26.8569 178.505 26.2409 181.769 26.2409C187.281 26.2409 191.835 28.1671 195.451 32.0097V0.320335H195.461ZM175.837 49.5703C175.837 51.0076 176.091 52.3374 176.609 53.5694C177.127 54.8014 177.83 55.8769 178.72 56.796C179.609 57.7151 180.674 58.4289 181.906 58.9471C183.137 59.4653 184.476 59.7195 185.903 59.7195C187.33 59.7195 188.581 59.4653 189.822 58.9471C191.053 58.4289 192.119 57.7151 193.008 56.796C193.897 55.8769 194.611 54.8112 195.158 53.6085C195.705 52.4059 195.979 51.1152 195.979 49.7366C195.979 48.3579 195.705 47.0575 195.158 45.8157C194.611 44.5837 193.897 43.5082 193.008 42.5891C192.119 41.67 191.053 40.9562 189.822 40.438C188.591 39.9198 187.281 39.6656 185.903 39.6656C184.525 39.6656 183.215 39.9198 181.984 40.438C180.753 40.9562 179.687 41.67 178.798 42.5891C177.909 43.5082 177.195 44.5544 176.648 45.7277C176.101 46.901 175.827 48.1819 175.827 49.5606L175.837 49.5703ZM218.956 10.6553C218.956 9.45265 219.18 8.31845 219.64 7.25269C220.099 6.1967 220.724 5.25804 221.536 4.45628C222.337 3.65451 223.265 3.01896 224.331 2.55941C225.396 2.09986 226.53 1.87498 227.732 1.87498C228.934 1.87498 230.067 2.10964 231.133 2.55941C232.198 3.01896 233.126 3.65451 233.928 4.45628C234.729 5.25804 235.364 6.1967 235.824 7.25269C236.283 8.31845 236.508 9.45265 236.508 10.6553C236.508 11.858 236.273 12.9922 235.824 14.0579C235.364 15.1237 234.729 16.0526 233.928 16.8543C233.126 17.6561 232.188 18.2916 231.133 18.7512C230.067 19.2107 228.934 19.4454 227.732 19.4454C226.53 19.4454 225.396 19.2205 224.331 18.7512C223.265 18.2916 222.337 17.6659 221.536 16.8543C220.734 16.0526 220.099 15.1139 219.64 14.0579C219.18 12.9922 218.956 11.858 218.956 10.6553ZM235.56 27.6097V71.7754H219.982V27.6097H235.56ZM244.512 27.6097H260.09V33.2026C262.211 30.6213 264.361 28.8808 266.541 27.9911C268.72 27.1013 271.271 26.6515 274.203 26.6515C277.301 26.6515 279.949 27.1502 282.168 28.1573C284.376 29.1644 286.253 30.5822 287.807 32.4203C289.067 33.9163 289.927 35.5785 290.387 37.4167C290.846 39.2549 291.071 41.3473 291.071 43.7037V71.7754H275.493V49.4726C275.493 47.2921 275.336 45.5224 275.024 44.1731C274.711 42.8238 274.144 41.7482 273.343 40.9465C272.658 40.262 271.877 39.7731 271.017 39.4798C270.157 39.1963 269.238 39.0496 268.261 39.0496C265.622 39.0496 263.599 39.8416 262.192 41.4158C260.784 42.9998 260.081 45.2486 260.081 48.1721V71.7656H244.502V27.6L244.512 27.6097ZM349.328 27.6097V68.7639C349.328 71.2278 349.182 73.4376 348.898 75.3931C348.615 77.3486 348.214 79.0695 347.696 80.5557C347.012 82.4526 345.927 84.2125 344.471 85.8552C343.005 87.488 341.246 88.9156 339.174 90.1182C337.112 91.3209 334.766 92.2693 332.157 92.9635C329.547 93.648 326.723 94 323.684 94C320.244 94 317.087 93.5697 314.214 92.7093C311.34 91.8489 308.838 90.656 306.678 89.1405C304.528 87.6151 302.76 85.8356 301.382 83.8019C300.003 81.7681 299.085 79.5388 298.626 77.1237H316.178C317.263 80.0472 319.735 81.5139 323.576 81.5139C326.85 81.5139 329.352 80.5948 331.111 78.7566C332.861 76.9184 333.74 74.3665 333.74 71.0909V66.8768C332.587 67.9719 331.492 68.8714 330.427 69.5852C329.362 70.3087 328.287 70.8954 327.202 71.3549C326.107 71.8145 324.964 72.1469 323.762 72.3425C322.56 72.5478 321.24 72.6456 319.804 72.6456C316.647 72.6456 313.754 72.098 311.115 71.0127C308.477 69.9274 306.2 68.4021 304.274 66.4465C302.349 64.491 300.864 62.1542 299.798 59.4262C298.733 56.6982 298.205 53.677 298.205 50.3428C298.205 47.0086 298.782 43.8113 299.925 40.9171C301.069 38.0229 302.632 35.4905 304.616 33.3394C306.6 31.1884 308.946 29.4968 311.673 28.2551C314.399 27.0231 317.37 26.4071 320.576 26.4071C325.795 26.4071 330.183 28.3626 333.74 32.2639V27.6195H349.318L349.328 27.6097ZM314.389 49.4823C314.389 50.9196 314.644 52.2494 315.161 53.4814C315.679 54.7134 316.383 55.7889 317.272 56.708C318.162 57.6271 319.227 58.3409 320.459 58.8591C321.69 59.3773 323.029 59.6315 324.456 59.6315C325.883 59.6315 327.134 59.3773 328.375 58.8591C329.606 58.3409 330.671 57.6271 331.561 56.708C332.45 55.7889 333.163 54.7134 333.711 53.4814C334.258 52.2494 334.532 50.9392 334.532 49.5606C334.532 48.1819 334.258 46.8033 333.711 45.6006C333.163 44.398 332.431 43.3322 331.512 42.4131C330.593 41.494 329.518 40.7802 328.287 40.262C327.055 39.7438 325.775 39.4896 324.456 39.4896C323.136 39.4896 321.788 39.7634 320.586 40.3109C319.383 40.8585 318.318 41.5722 317.4 42.462C316.481 43.3518 315.748 44.398 315.201 45.6006C314.653 46.8033 314.38 48.0939 314.38 49.4726L314.389 49.4823ZM394.509 40.614V71.7851H378.931V40.614H373.771V27.6097H378.931V14.3512H394.509V27.6097H403.373V40.614H394.509ZM409.481 0.320335H425.06V33.2123C427.18 30.631 429.33 28.8906 431.51 28.0008C433.689 27.1111 436.24 26.6613 439.172 26.6613C444.733 26.6613 448.935 28.1964 451.779 31.2666C454.623 34.3368 456.04 38.4825 456.04 43.7037V71.7754H440.462V49.4726C440.462 47.2335 440.286 45.4246 439.944 44.046C439.602 42.6673 439.025 41.6016 438.224 40.8585C436.846 39.6558 435.184 39.0496 433.23 39.0496C430.591 39.0496 428.568 39.8416 427.161 41.4158C425.753 42.9998 425.05 45.2486 425.05 48.1721V71.7656H409.472V0.300781L409.481 0.320335ZM478.938 52.3276C478.938 59.0449 482.095 62.3986 488.409 62.3986C491.79 62.3986 494.351 61.0199 496.071 58.2626H511.131C508.091 68.363 500.488 73.418 488.321 73.418C484.587 73.418 481.176 72.8607 478.078 71.7363C474.98 70.6118 472.322 69.0279 470.113 66.955C467.905 64.8919 466.194 62.4182 464.992 59.5533C463.79 56.6885 463.184 53.4716 463.184 49.9126C463.184 46.3535 463.761 42.9215 464.904 39.9687C466.048 37.0158 467.69 34.503 469.81 32.4301C471.931 30.367 474.501 28.7733 477.512 27.6488C480.522 26.5244 483.923 25.9671 487.715 25.9671C491.507 25.9671 494.8 26.5244 497.781 27.6488C500.762 28.7635 503.293 30.3866 505.355 32.5181C507.417 34.6497 509 37.2407 510.085 40.3109C511.17 43.3811 511.717 46.8424 511.717 50.685V52.3179H478.929L478.938 52.3276ZM497.175 43.2833C496.657 41.1029 495.592 39.3527 493.989 38.0327C492.386 36.7127 490.432 36.0479 488.135 36.0479C485.721 36.0479 483.757 36.6834 482.242 37.9447C480.717 39.206 479.759 40.9856 479.359 43.2833H497.175ZM556.126 6.86158V71.7851H539.258V6.86158H556.126ZM566.544 27.6097H582.122V33.0363C586.364 28.9591 591.133 26.9253 596.411 26.9253C602.949 26.9253 607.943 29.6826 611.383 35.1874C614.882 29.6239 619.876 26.8373 626.355 26.8373C628.417 26.8373 630.372 27.1404 632.209 27.7369C634.047 28.3431 635.62 29.2817 636.939 30.5821C638.259 31.8728 639.305 33.5546 640.077 35.6176C640.849 37.6807 641.24 40.1838 641.24 43.1073V71.7754H625.661V49.9908C625.661 47.7517 625.505 45.9135 625.192 44.4762C624.879 43.0389 624.42 41.9242 623.814 41.1224C623.208 40.3207 622.505 39.7731 621.703 39.4896C620.902 39.206 620.042 39.0594 619.123 39.0594C614.129 39.0594 611.637 42.7064 611.637 49.9908V71.7754H596.059V49.9908C596.059 47.7517 595.912 45.9037 595.629 44.4371C595.345 42.9704 594.925 41.8069 594.378 40.9465C593.831 40.086 593.127 39.4994 592.267 39.1865C591.407 38.8736 590.4 38.7171 589.257 38.7171C588.279 38.7171 587.361 38.8638 586.501 39.1474C585.641 39.4309 584.878 39.998 584.224 40.8291C583.559 41.6602 583.041 42.814 582.67 44.2708C582.298 45.7375 582.113 47.6441 582.113 50.0005V71.7851H566.534V27.6195L566.544 27.6097ZM667.314 93.824H651.736V27.6097H667.314V32.5181C670.637 28.3235 675.172 26.2311 680.908 26.2311C684.065 26.2311 687.007 26.8471 689.734 28.0791C692.46 29.3111 694.825 30.9928 696.829 33.1146C698.832 35.2363 700.396 37.7394 701.52 40.6042C702.634 43.4789 703.201 46.549 703.201 49.8148C703.201 53.0805 702.644 56.1311 701.52 58.9373C700.396 61.7533 698.852 64.2173 696.868 66.339C694.884 68.4608 692.548 70.1229 689.851 71.3354C687.153 72.538 684.231 73.1442 681.075 73.1442C675.563 73.1442 670.979 71.2474 667.304 67.4634V93.8142L667.314 93.824ZM686.938 49.8246C686.938 48.4459 686.694 47.1455 686.205 45.9037C685.717 44.6717 685.013 43.5962 684.094 42.6771C683.176 41.758 682.101 41.0247 680.869 40.4771C679.638 39.9296 678.299 39.6558 676.872 39.6558C675.445 39.6558 674.204 39.91 673.002 40.4282C671.8 40.9465 670.754 41.6602 669.865 42.5793C668.976 43.4984 668.262 44.574 667.715 45.8059C667.167 47.0379 666.894 48.3481 666.894 49.7268C666.894 51.1054 667.148 52.3961 667.666 53.5987C668.184 54.8014 668.897 55.8476 669.816 56.7374C670.735 57.6271 671.81 58.3409 673.041 58.8884C674.273 59.436 675.582 59.7098 676.96 59.7098C678.338 59.7098 679.628 59.4555 680.83 58.9373C682.032 58.4191 683.078 57.7053 683.967 56.7862C684.857 55.8671 685.57 54.8014 686.117 53.5987C686.665 52.3961 686.938 51.1348 686.938 49.805V49.8246ZM708.625 49.3063C708.625 46.0308 709.28 42.9802 710.609 40.1349C711.928 37.2896 713.765 34.8256 716.121 32.7332C718.476 30.6408 721.271 28.9884 724.516 27.7857C727.76 26.5831 731.298 25.9769 735.149 25.9769C739 25.9769 742.449 26.5635 745.694 27.7369C748.939 28.9102 751.744 30.5528 754.128 32.6452C756.503 34.7376 758.36 37.2407 759.679 40.1349C760.999 43.0291 761.663 46.2362 761.663 49.7366C761.663 53.237 760.989 56.4342 759.64 59.3382C758.292 62.2324 756.444 64.7355 754.089 66.8279C751.734 68.9203 748.909 70.5434 745.616 71.6971C742.313 72.8411 738.745 73.418 734.905 73.418C731.064 73.418 727.614 72.8411 724.408 71.6971C721.193 70.5532 718.427 68.9105 716.101 66.7888C713.775 64.667 711.957 62.1248 710.638 59.172C709.319 56.2191 708.654 52.9338 708.654 49.3161L708.625 49.3063ZM725.063 49.4823C725.063 50.9783 725.337 52.3374 725.884 53.5694C726.431 54.8014 727.145 55.8769 728.034 56.796C728.923 57.7151 729.989 58.4289 731.22 58.9471C732.452 59.4653 733.761 59.7195 735.139 59.7195C736.517 59.7195 737.817 59.4653 739.058 58.9471C740.29 58.4289 741.355 57.7151 742.244 56.796C743.133 55.8769 743.847 54.8014 744.394 53.5694C744.942 52.3374 745.215 50.9979 745.215 49.5703C745.215 48.1428 744.942 46.8913 744.394 45.6495C743.847 44.4175 743.133 43.342 742.244 42.4229C741.355 41.5038 740.29 40.79 739.058 40.2718C737.827 39.7536 736.517 39.4994 735.139 39.4994C733.761 39.4994 732.452 39.7536 731.22 40.2718C729.989 40.79 728.923 41.5038 728.034 42.4229C727.145 43.342 726.431 44.4077 725.884 45.6104C725.337 46.813 725.063 48.1037 725.063 49.4823ZM798.126 38.9812C795.253 37.4852 792.448 36.7421 789.692 36.7421C788.256 36.7421 787.093 37.0256 786.203 37.6025C785.314 38.1794 784.864 38.9518 784.864 39.9296C784.864 40.4478 784.933 40.8682 785.079 41.1811C785.226 41.494 785.539 41.7971 786.027 42.0807C786.516 42.3642 787.23 42.6282 788.178 42.8531C789.126 43.0878 790.377 43.3713 791.921 43.7135C796.221 44.574 799.436 46.109 801.557 48.3188C803.678 50.5285 804.743 53.3543 804.743 56.796C804.743 59.3773 804.225 61.7044 803.199 63.7675C802.173 65.8306 800.736 67.571 798.899 68.979C797.061 70.3869 794.853 71.4723 792.272 72.2545C789.692 73.0269 786.848 73.418 783.75 73.418C777.779 73.418 771.905 71.7265 766.11 68.3336L771.788 57.3142C776.147 60.2964 780.281 61.7924 784.18 61.7924C785.617 61.7924 786.79 61.4795 787.708 60.844C788.627 60.2084 789.086 59.4067 789.086 58.4289C789.086 57.852 789.018 57.3827 788.871 57.0111C788.725 56.6396 788.422 56.2973 787.972 55.9747C787.513 55.6618 786.839 55.3685 785.949 55.1143C785.06 54.8601 783.897 54.5863 782.46 54.2929C777.642 53.3152 774.27 51.8681 772.345 49.9419C770.42 48.0157 769.462 45.3659 769.462 41.9829C769.462 39.5189 769.921 37.2896 770.84 35.3047C771.759 33.3199 773.078 31.6479 774.798 30.2693C776.518 28.8906 778.6 27.8346 781.033 27.0817C783.467 26.3386 786.184 25.9671 789.165 25.9671C794.041 25.9671 798.771 26.9155 803.365 28.8124L798.117 38.9714L798.126 38.9812ZM840.209 38.9812C837.336 37.4852 834.531 36.7421 831.775 36.7421C830.339 36.7421 829.175 37.0256 828.286 37.6025C827.397 38.1794 826.947 38.9518 826.947 39.9296C826.947 40.4478 827.016 40.8682 827.162 41.1811C827.309 41.494 827.622 41.7971 828.11 42.0807C828.599 42.3642 829.312 42.6282 830.26 42.8531C831.208 43.0878 832.459 43.3713 834.003 43.7135C838.304 44.574 841.519 46.109 843.64 48.3188C845.76 50.5285 846.826 53.3543 846.826 56.796C846.826 59.3773 846.308 61.7044 845.281 63.7675C844.255 65.8306 842.819 67.571 840.981 68.979C839.144 70.3869 836.935 71.4723 834.355 72.2545C831.775 73.0269 828.931 73.418 825.833 73.418C819.862 73.418 813.988 71.7265 808.193 68.3336L813.871 57.3142C818.23 60.2964 822.364 61.7924 826.263 61.7924C827.7 61.7924 828.873 61.4795 829.791 60.844C830.71 60.2084 831.169 59.4067 831.169 58.4289C831.169 57.852 831.101 57.3827 830.954 57.0111C830.808 56.6396 830.505 56.2973 830.055 55.9747C829.596 55.6618 828.921 55.3685 828.032 55.1143C827.143 54.8601 825.98 54.5863 824.543 54.2929C819.725 53.3152 816.353 51.8681 814.428 49.9419C812.503 48.0157 811.545 45.3659 811.545 41.9829C811.545 39.5189 812.004 37.2896 812.923 35.3047C813.842 33.3199 815.161 31.6479 816.881 30.2693C818.601 28.8906 820.683 27.8346 823.116 27.0817C825.55 26.3386 828.267 25.9671 831.247 25.9671C836.124 25.9671 840.854 26.9155 845.448 28.8124L840.2 38.9714L840.209 38.9812ZM851.996 10.6553C851.996 9.45265 852.22 8.31845 852.68 7.25269C853.139 6.1967 853.765 5.25804 854.576 4.45628C855.377 3.65451 856.306 3.01896 857.371 2.55941C858.436 2.09986 859.57 1.87498 860.772 1.87498C861.974 1.87498 863.108 2.10964 864.173 2.55941C865.228 3.01896 866.167 3.65451 866.968 4.45628C867.769 5.25804 868.405 6.1967 868.864 7.25269C869.323 8.31845 869.548 9.45265 869.548 10.6553C869.548 11.858 869.323 12.9922 868.864 14.0579C868.405 15.1237 867.769 16.0526 866.968 16.8543C866.167 17.6561 865.228 18.2916 864.173 18.7512C863.108 19.2107 861.974 19.4454 860.772 19.4454C859.57 19.4454 858.436 19.2205 857.371 18.7512C856.306 18.2916 855.377 17.6659 854.576 16.8543C853.774 16.0526 853.139 15.1139 852.68 14.0579C852.22 12.9922 851.996 11.858 851.996 10.6553ZM868.6 27.6097V71.7754H853.022V27.6097H868.6ZM893.13 0.320335V32.0097C896.805 28.1671 901.389 26.2409 906.901 26.2409C910.175 26.2409 913.165 26.8569 915.892 28.0889C918.619 29.3208 920.945 30.983 922.86 33.0852C924.785 35.1776 926.29 37.6514 927.375 40.4869C928.46 43.3322 929.007 46.3535 929.007 49.5703C929.007 52.7872 928.45 55.916 927.326 58.7809C926.202 61.6555 924.639 64.1488 922.635 66.2706C920.622 68.3923 918.257 70.0741 915.54 71.306C912.813 72.538 909.872 73.154 906.715 73.154C900.978 73.154 896.443 71.0616 893.121 66.867V71.7754H877.542V0.310562H893.121L893.13 0.320335ZM912.755 49.8246C912.755 48.4459 912.501 47.1455 911.983 45.9037C911.465 44.6717 910.751 43.5962 909.833 42.6771C908.914 41.758 907.849 41.0247 906.647 40.4771C905.444 39.9296 904.125 39.6558 902.688 39.6558C901.252 39.6558 900.02 39.91 898.818 40.4282C897.616 40.9465 896.571 41.6602 895.681 42.5793C894.792 43.4984 894.078 44.574 893.531 45.8059C892.984 47.0379 892.71 48.3481 892.71 49.7268C892.71 51.1054 892.964 52.3961 893.482 53.5987C894 54.8014 894.714 55.8476 895.632 56.7374C896.551 57.6271 897.626 58.3409 898.857 58.8884C900.089 59.436 901.398 59.7098 902.776 59.7098C904.154 59.7098 905.444 59.4555 906.647 58.9373C907.849 58.4191 908.894 57.7053 909.784 56.7862C910.673 55.8671 911.386 54.8014 911.934 53.5987C912.481 52.3961 912.755 51.1348 912.755 49.805V49.8246ZM951.739 0.320335V71.7851H936.161V0.320335H951.739ZM974.716 52.3276C974.716 59.0449 977.873 62.3986 984.186 62.3986C987.567 62.3986 990.128 61.0199 991.848 58.2626H1006.91C1003.87 68.363 996.266 73.418 984.098 73.418C980.365 73.418 976.954 72.8607 973.856 71.7363C970.758 70.6118 968.1 69.0279 965.891 66.955C963.682 64.8919 961.972 62.4182 960.77 59.5533C959.568 56.6885 958.962 53.4716 958.962 49.9126C958.962 46.3535 959.538 42.9215 960.682 39.9687C961.825 37.0158 963.467 34.503 965.588 32.4301C967.709 30.367 970.279 28.7733 973.289 27.6488C976.299 26.5244 979.7 25.9671 983.482 25.9671C987.265 25.9671 990.568 26.5244 993.549 27.6488C996.529 28.7635 999.061 30.3866 1001.12 32.5181C1003.18 34.6497 1004.77 37.2407 1005.85 40.3109C1006.95 43.3811 1007.48 46.8424 1007.48 50.685V52.3179H974.696L974.716 52.3276ZM992.952 43.2833C992.434 41.1029 991.369 39.3527 989.766 38.0327C988.164 36.7127 986.209 36.0479 983.912 36.0479C981.498 36.0479 979.534 36.6834 978.019 37.9447C976.495 39.206 975.537 40.9856 975.136 43.2833H992.952ZM1013.87 63.5133C1013.87 62.1346 1014.12 60.8342 1014.64 59.5924C1015.16 58.3604 1015.87 57.2849 1016.79 56.3658C1017.71 55.4467 1018.78 54.7329 1020.01 54.2147C1021.25 53.6965 1022.55 53.4423 1023.93 53.4423C1025.31 53.4423 1026.61 53.6965 1027.85 54.2147C1029.08 54.7329 1030.16 55.4467 1031.08 56.3658C1032 57.2849 1032.71 58.3604 1033.23 59.5924C1033.75 60.8244 1034 62.1346 1034 63.5133C1034 64.8919 1033.75 66.2021 1033.23 67.4341C1032.71 68.6661 1032 69.7416 1031.08 70.6607C1030.16 71.5798 1029.08 72.2936 1027.85 72.8118C1026.62 73.33 1025.31 73.5842 1023.93 73.5842C1022.55 73.5842 1021.25 73.33 1020.01 72.8118C1018.78 72.2936 1017.71 71.5798 1016.79 70.6607C1015.87 69.7416 1015.16 68.6661 1014.64 67.4341C1014.12 66.2021 1013.87 64.8919 1013.87 63.5133Z" fill="#252526"/>
</svg>
