<svg width="1035" height="197" viewBox="0 0 1035 197" fill="none" xmlns="http://www.w3.org/2000/svg">
<path d="M30.7265 20.8362V71.4648H13.8582V20.8362H0V6.54124H44.5749V20.8362H30.7167H30.7265ZM48.8848 0H64.4631V32.892C66.5838 30.3107 68.7339 28.5703 70.9133 27.6805C73.0927 26.7907 75.6435 26.3508 78.5754 26.3508C84.1363 26.3508 88.3387 27.8858 91.1826 30.956C94.0266 34.0262 95.4437 38.1719 95.4437 43.3932V71.4648H79.8654V49.162C79.8654 46.9229 79.6895 45.1141 79.3475 43.7354C79.0054 42.3568 78.4288 41.3008 77.6274 40.5479C76.2494 39.3452 74.588 38.739 72.6334 38.739C69.9946 38.739 67.9716 39.531 66.5643 41.1052C65.157 42.6892 64.4533 44.9381 64.4533 47.8616V71.455H48.8751V0H48.8848ZM118.332 52.0073C118.332 58.7245 121.489 62.0783 127.802 62.0783C131.184 62.0783 133.744 60.6996 135.464 57.9423H150.525C147.485 68.0426 139.882 73.0977 127.714 73.0977C123.981 73.0977 120.57 72.5404 117.472 71.4159C114.374 70.3013 111.716 68.7075 109.507 66.6347C107.298 64.5716 105.588 62.0978 104.386 59.233C103.184 56.3681 102.578 53.1513 102.578 49.5922C102.578 46.0332 103.155 42.6012 104.298 39.6483C105.442 36.6955 107.083 34.1826 109.204 32.1098C111.325 30.0467 113.895 28.4529 116.905 27.3285C119.915 26.2041 123.316 25.6468 127.108 25.6468C130.9 25.6468 134.194 26.2041 137.175 27.3285C140.155 28.4432 142.687 30.0663 144.749 32.188C146.811 34.3098 148.394 36.9106 149.479 39.9808C150.564 43.051 151.111 46.5123 151.111 50.3549V51.9877H118.322L118.332 52.0073ZM136.578 42.963C136.061 40.7826 134.995 39.0324 133.392 37.7124C131.79 36.3924 129.835 35.7275 127.538 35.7275C125.124 35.7275 123.16 36.3631 121.645 37.6244C120.121 38.8857 119.163 40.6652 118.762 42.963H136.578ZM195.52 6.54124V57.1699H215.74V71.4648H178.652V6.54124H195.52ZM255.331 27.2894H270.997V71.455H255.331V66.5467C251.998 70.7413 247.503 72.8337 241.815 72.8337C238.599 72.8337 235.648 72.247 232.951 71.0639C230.253 69.8906 227.898 68.2382 225.894 66.1164C223.881 63.9947 222.327 61.4916 221.203 58.6268C220.089 55.7619 219.522 52.6331 219.522 49.2402C219.522 46.082 220.07 43.0803 221.155 40.2448C222.239 37.3995 223.764 34.9258 225.719 32.7942C227.673 30.6725 229.989 28.9907 232.687 27.7587C235.384 26.5268 238.365 25.9108 241.639 25.9108C247.151 25.9108 251.705 27.837 255.321 31.6796V27.2894H255.331ZM235.716 49.25C235.716 50.6873 235.97 52.0171 236.488 53.2491C237.006 54.481 237.71 55.5566 238.599 56.4757C239.489 57.3948 240.554 58.1085 241.785 58.6268C243.017 59.145 244.356 59.3992 245.783 59.3992C247.21 59.3992 248.46 59.145 249.702 58.6268C250.933 58.1085 251.998 57.3948 252.888 56.4757C253.777 55.5566 254.49 54.5006 255.038 53.2882C255.585 52.0855 255.859 50.7949 255.859 49.4162C255.859 48.0376 255.585 46.7371 255.038 45.4954C254.49 44.2634 253.777 43.1879 252.888 42.2688C251.998 41.3497 250.933 40.6359 249.702 40.1177C248.47 39.5995 247.161 39.3452 245.783 39.3452C244.405 39.3452 243.017 39.5995 241.785 40.1177C240.554 40.6359 239.489 41.3497 238.599 42.2688C237.71 43.1879 237.006 44.2341 236.488 45.4074C235.97 46.5807 235.716 47.8616 235.716 49.2402V49.25ZM309.122 38.6608C306.249 37.1648 303.444 36.4217 300.688 36.4217C299.251 36.4217 298.088 36.7053 297.199 37.2822C296.309 37.859 295.87 38.6315 295.87 39.6092C295.87 40.1275 295.938 40.5479 296.085 40.8608C296.231 41.1737 296.544 41.4768 297.033 41.7603C297.521 42.0439 298.235 42.3079 299.183 42.5328C300.131 42.7674 301.382 43.051 302.926 43.3932C307.226 44.2536 310.441 45.7887 312.562 47.9985C314.683 50.2082 315.748 53.0339 315.748 56.4757C315.748 59.057 315.23 61.3841 314.204 63.4471C313.178 65.5102 311.741 67.2506 309.904 68.6586C308.066 70.0666 305.858 71.1519 303.278 71.9341C300.697 72.7066 297.853 73.0977 294.755 73.0977C288.784 73.0977 282.91 71.4061 277.115 68.0133L282.793 56.9939C287.152 59.9761 291.286 61.4721 295.185 61.4721C296.622 61.4721 297.795 61.1592 298.714 60.5236C299.632 59.8881 300.092 59.0863 300.092 58.1085C300.092 57.5317 300.023 57.0623 299.877 56.6908C299.73 56.3192 299.427 55.977 298.977 55.6544C298.518 55.3415 297.844 55.0481 296.954 54.7939C296.065 54.5397 294.902 54.2659 293.465 53.9726C288.647 52.9948 285.276 51.5477 283.35 49.6216C281.425 47.6954 280.467 45.0456 280.467 41.6528C280.467 39.1888 280.927 36.9595 281.845 34.9844C282.764 32.9995 284.083 31.3276 285.803 29.9489C287.523 28.5703 289.605 27.5045 292.039 26.7614C294.472 26.0183 297.189 25.6468 300.17 25.6468C305.047 25.6468 309.777 26.5952 314.37 28.4921L309.122 38.651V38.6608ZM340.532 40.2937V71.4648H324.954V40.2937H319.794V27.2894H324.954V14.0309H340.532V27.2894H349.397V40.2937H340.532ZM411.094 20.8362H390.785V31.6796H409.286V45.9745H390.785V71.455H373.917V6.54124H411.094V20.8362ZM433.044 27.2894V52.1735C433.044 57.6294 435.683 60.3574 440.96 60.3574C446.238 60.3574 448.877 57.6294 448.877 52.1735V27.2894H464.455V55.185C464.455 61.1592 462.49 65.6373 458.562 68.6195C454.633 71.6017 448.769 73.0977 440.96 73.0977C433.152 73.0977 427.288 71.6017 423.359 68.6195C419.43 65.6373 417.466 61.1592 417.466 55.185V27.2894H433.044ZM490.705 40.2937V71.4648H475.127V40.2937H469.967V27.2894H475.127V14.0309H490.705V27.2894H499.569V40.2937H490.705ZM519.272 27.2894V52.1735C519.272 57.6294 521.911 60.3574 527.188 60.3574C532.466 60.3574 535.104 57.6294 535.104 52.1735V27.2894H550.682V55.185C550.682 61.1592 548.718 65.6373 544.789 68.6195C540.861 71.6017 534.997 73.0977 527.188 73.0977C519.379 73.0977 513.516 71.6017 509.587 68.6195C505.658 65.6373 503.694 61.1592 503.694 55.185V27.2894H519.272ZM559.547 27.2894H575.125V34.5249C576.786 31.8849 578.829 29.8609 581.233 28.4529C583.637 27.045 586.452 26.341 589.667 26.341H590.996C591.485 26.341 592.042 26.3996 592.677 26.517V41.4083C590.615 40.3719 588.377 39.8537 585.963 39.8537C582.347 39.8537 579.64 40.9292 577.832 43.0803C576.024 45.2314 575.125 48.3798 575.125 52.506V71.4453H559.547V27.2894ZM612.478 52.0073C612.478 58.7245 615.634 62.0783 621.948 62.0783C625.329 62.0783 627.89 60.6996 629.61 57.9423H644.67C641.631 68.0426 634.027 73.0977 621.86 73.0977C618.126 73.0977 614.716 72.5404 611.618 71.4159C608.519 70.2915 605.861 68.7075 603.652 66.6347C601.444 64.5716 599.733 62.0978 598.531 59.233C597.329 56.3681 596.723 53.1513 596.723 49.5922C596.723 46.0332 597.3 42.6012 598.443 39.6483C599.587 36.6955 601.229 34.1826 603.349 32.1098C605.47 30.0369 608.041 28.4529 611.051 27.3285C614.061 26.2041 617.462 25.6468 621.244 25.6468C625.026 25.6468 628.329 26.2041 631.31 27.3285C634.291 28.4432 636.822 30.0663 638.884 32.188C640.946 34.3098 642.53 36.9106 643.615 39.9808C644.709 43.051 645.247 46.5123 645.247 50.3549V51.9877H612.458L612.478 52.0073ZM630.714 42.963C630.196 40.7826 629.131 39.0324 627.528 37.7124C625.925 36.3924 623.971 35.7275 621.674 35.7275C619.26 35.7275 617.296 36.3631 615.781 37.6244C614.256 38.8857 613.299 40.6652 612.898 42.963H630.714ZM657.219 55.0188H671.849L656.017 83.5206H646.038L657.228 55.0188H657.219ZM1.10816 109.862H26.2347C32.1963 109.862 36.731 111.299 39.829 114.164C42.9271 117.038 44.481 121.165 44.481 126.562C44.481 129.837 43.8946 132.546 42.7121 134.697C41.5393 136.848 39.7411 138.676 37.3369 140.163C39.7508 140.622 41.7934 141.326 43.4939 142.275C45.1847 143.223 46.5627 144.386 47.6279 145.765C48.6932 147.144 49.4457 148.689 49.905 150.41C50.3644 152.13 50.5892 153.969 50.5892 155.924C50.5892 158.965 50.0614 161.664 48.9961 164.02C47.9309 166.376 46.4454 168.352 44.5201 169.965C42.5948 171.568 40.259 172.781 37.503 173.583C34.747 174.384 31.649 174.785 28.2089 174.785H1.10816V109.862ZM17.9765 135.352H21.0745C26.352 135.352 28.9907 133.26 28.9907 129.065C28.9907 124.87 26.352 122.778 21.0745 122.778H17.9765V135.352ZM17.9765 161.693H21.6804C25.922 161.693 28.9614 161.145 30.7987 160.06C32.636 158.975 33.5547 157.215 33.5547 154.809C33.5547 152.404 32.636 150.644 30.7987 149.559C28.9614 148.464 25.922 147.926 21.6804 147.926H17.9765V161.703V161.693ZM73.0574 130.61V155.494C73.0574 160.95 75.6961 163.678 80.9736 163.678C86.251 163.678 88.8898 160.95 88.8898 155.494V130.61H104.468V158.505C104.468 164.48 102.504 168.958 98.5749 171.94C94.6461 174.922 88.7823 176.418 80.9736 176.418C73.1649 176.418 67.3011 174.922 63.3723 171.94C59.4435 168.958 57.4792 164.48 57.4792 158.505V130.61H73.0574ZM112.296 113.655C112.296 112.453 112.521 111.318 112.98 110.253C113.44 109.197 114.065 108.258 114.876 107.456C115.678 106.655 116.606 106.019 117.671 105.559C118.737 105.1 119.87 104.875 121.072 104.875C122.275 104.875 123.408 105.11 124.473 105.559C125.539 106.019 126.467 106.655 127.269 107.456C128.07 108.258 128.705 109.197 129.165 110.253C129.624 111.318 129.849 112.453 129.849 113.655C129.849 114.858 129.614 115.992 129.165 117.058C128.705 118.124 128.07 119.053 127.269 119.854C126.467 120.656 125.529 121.292 124.473 121.751C123.408 122.211 122.275 122.445 121.072 122.445C119.87 122.445 118.737 122.221 117.671 121.751C116.606 121.292 115.678 120.666 114.876 119.854C114.075 119.053 113.44 118.114 112.98 117.058C112.521 115.992 112.296 114.858 112.296 113.655ZM128.91 130.61V174.775H113.332V130.61H128.91ZM153.431 103.32V174.785H137.853V103.32H153.431ZM196.462 103.32H212.128V174.785H196.462V169.877C193.129 174.071 188.634 176.164 182.946 176.164C179.73 176.164 176.779 175.558 174.082 174.355C171.384 173.152 169.029 171.49 167.025 169.359C165.012 167.237 163.458 164.744 162.334 161.869C161.22 159.004 160.653 155.905 160.653 152.57C160.653 149.412 161.181 146.41 162.246 143.575C163.312 140.73 164.817 138.256 166.762 136.124C168.716 134.003 171.052 132.321 173.779 131.089C176.505 129.857 179.506 129.241 182.77 129.241C188.282 129.241 192.836 131.167 196.452 135.01V103.32H196.462ZM176.838 152.57C176.838 154.008 177.092 155.337 177.61 156.569C178.128 157.801 178.831 158.877 179.721 159.796C180.61 160.715 181.675 161.429 182.907 161.947C184.138 162.465 185.477 162.72 186.904 162.72C188.331 162.72 189.582 162.465 190.823 161.947C192.054 161.429 193.119 160.715 194.009 159.796C194.898 158.877 195.612 157.811 196.159 156.609C196.706 155.406 196.98 154.115 196.98 152.737C196.98 151.358 196.706 150.058 196.159 148.816C195.612 147.584 194.898 146.508 194.009 145.589C193.119 144.67 192.054 143.956 190.823 143.438C189.591 142.92 188.282 142.666 186.904 142.666C185.526 142.666 184.216 142.92 182.985 143.438C181.753 143.956 180.688 144.67 179.799 145.589C178.909 146.508 178.196 147.554 177.649 148.728C177.101 149.901 176.828 151.182 176.828 152.561L176.838 152.57ZM219.956 113.655C219.956 112.453 220.181 111.318 220.64 110.253C221.1 109.197 221.725 108.258 222.536 107.456C223.338 106.655 224.266 106.019 225.331 105.559C226.397 105.1 227.53 104.875 228.732 104.875C229.935 104.875 231.068 105.11 232.133 105.559C233.199 106.019 234.127 106.655 234.929 107.456C235.73 108.258 236.365 109.197 236.825 110.253C237.284 111.318 237.509 112.453 237.509 113.655C237.509 114.858 237.274 115.992 236.825 117.058C236.365 118.124 235.73 119.053 234.929 119.854C234.127 120.656 233.189 121.292 232.133 121.751C231.068 122.211 229.935 122.445 228.732 122.445C227.53 122.445 226.397 122.221 225.331 121.751C224.266 121.292 223.338 120.666 222.536 119.854C221.735 119.053 221.1 118.114 220.64 117.058C220.181 115.992 219.956 114.858 219.956 113.655ZM236.561 130.61V174.775H220.982V130.61H236.561ZM245.513 130.61H261.091V136.203C263.212 133.621 265.362 131.881 267.541 130.991C269.721 130.101 272.271 129.652 275.203 129.652C278.301 129.652 280.95 130.15 283.168 131.157C285.377 132.164 287.254 133.582 288.807 135.42C290.068 136.916 290.928 138.579 291.388 140.417C291.847 142.255 292.072 144.347 292.072 146.704V174.775H276.493V152.473C276.493 150.292 276.337 148.522 276.024 147.173C275.712 145.824 275.145 144.748 274.343 143.947C273.659 143.262 272.877 142.773 272.017 142.48C271.157 142.196 270.239 142.05 269.261 142.05C266.623 142.05 264.6 142.842 263.192 144.416C261.785 146 261.081 148.249 261.081 151.172V174.766H245.503V130.6L245.513 130.61ZM350.329 130.61V171.764C350.329 174.228 350.182 176.438 349.899 178.393C349.615 180.349 349.215 182.07 348.697 183.556C348.013 185.453 346.928 187.213 345.472 188.855C344.006 190.488 342.247 191.916 340.175 193.118C338.113 194.321 335.767 195.269 333.158 195.964C330.548 196.648 327.724 197 324.684 197C321.244 197 318.088 196.57 315.214 195.709C312.341 194.849 309.839 193.656 307.679 192.141C305.529 190.615 303.76 188.836 302.382 186.802C301.004 184.768 300.086 182.539 299.626 180.124H317.179C318.263 183.047 320.736 184.514 324.577 184.514C327.851 184.514 330.353 183.595 332.112 181.757C333.861 179.918 334.741 177.367 334.741 174.091V169.877C333.588 170.972 332.493 171.871 331.428 172.585C330.362 173.309 329.287 173.895 328.203 174.355C327.108 174.815 325.965 175.147 324.763 175.343C323.56 175.548 322.241 175.646 320.804 175.646C317.648 175.646 314.755 175.098 312.116 174.013C309.477 172.927 307.2 171.402 305.275 169.447C303.35 167.491 301.864 165.154 300.799 162.426C299.734 159.698 299.206 156.677 299.206 153.343C299.206 150.009 299.783 146.811 300.926 143.917C302.069 141.023 303.633 138.491 305.617 136.339C307.601 134.188 309.947 132.497 312.673 131.255C315.4 130.023 318.371 129.407 321.577 129.407C326.795 129.407 331.183 131.363 334.741 135.264V130.62H350.319L350.329 130.61ZM315.39 152.482C315.39 153.92 315.644 155.249 316.162 156.481C316.68 157.713 317.384 158.789 318.273 159.708C319.163 160.627 320.228 161.341 321.459 161.859C322.691 162.377 324.03 162.632 325.456 162.632C326.883 162.632 328.134 162.377 329.375 161.859C330.607 161.341 331.672 160.627 332.561 159.708C333.451 158.789 334.164 157.713 334.712 156.481C335.259 155.249 335.532 153.939 335.532 152.561C335.532 151.182 335.259 149.803 334.712 148.601C334.164 147.398 333.431 146.332 332.513 145.413C331.594 144.494 330.519 143.78 329.287 143.262C328.056 142.744 326.776 142.49 325.456 142.49C324.137 142.49 322.788 142.763 321.586 143.311C320.384 143.859 319.319 144.572 318.4 145.462C317.482 146.352 316.749 147.398 316.201 148.601C315.654 149.803 315.38 151.094 315.38 152.473L315.39 152.482ZM395.51 143.614V174.785H379.931V143.614H374.771V130.61H379.931V117.351H395.51V130.61H404.374V143.614H395.51ZM410.482 103.32H426.06V136.212C428.181 133.631 430.331 131.891 432.511 131.001C434.69 130.111 437.241 129.661 440.173 129.661C445.733 129.661 449.936 131.196 452.78 134.267C455.624 137.337 457.041 141.483 457.041 146.704V174.775H441.463V152.473C441.463 150.234 441.287 148.425 440.945 147.046C440.603 145.667 440.026 144.602 439.225 143.859C437.847 142.656 436.185 142.05 434.231 142.05C431.592 142.05 429.569 142.842 428.161 144.416C426.754 146 426.051 148.249 426.051 151.172V174.766H410.472V103.301L410.482 103.32ZM479.939 155.328C479.939 162.045 483.096 165.399 489.409 165.399C492.791 165.399 495.351 164.02 497.071 161.263H512.132C509.092 171.363 501.489 176.418 489.321 176.418C485.588 176.418 482.177 175.861 479.079 174.736C475.981 173.612 473.323 172.028 471.114 169.955C468.905 167.892 467.195 165.418 465.993 162.553C464.791 159.689 464.185 156.472 464.185 152.913C464.185 149.354 464.762 145.922 465.905 142.969C467.048 140.016 468.69 137.503 470.811 135.43C472.932 133.367 475.502 131.773 478.512 130.649C481.522 129.524 484.923 128.967 488.715 128.967C492.507 128.967 495.801 129.524 498.782 130.649C501.762 131.764 504.294 133.387 506.356 135.518C508.418 137.65 510.001 140.241 511.086 143.311C512.171 146.381 512.718 149.842 512.718 153.685V155.318H479.929L479.939 155.328ZM498.176 146.283C497.658 144.103 496.592 142.353 494.99 141.033C493.387 139.713 491.432 139.048 489.136 139.048C486.722 139.048 484.757 139.683 483.242 140.945C481.718 142.206 480.76 143.986 480.359 146.283H498.176ZM557.127 109.862V174.785H540.258V109.862H557.127ZM567.545 130.61H583.123V136.036C587.365 131.959 592.134 129.925 597.411 129.925C603.949 129.925 608.943 132.683 612.384 138.187C615.882 132.624 620.876 129.837 627.356 129.837C629.418 129.837 631.373 130.14 633.21 130.737C635.047 131.343 636.621 132.282 637.94 133.582C639.26 134.873 640.305 136.555 641.077 138.618C641.849 140.681 642.24 143.184 642.24 146.107V174.775H626.662V152.991C626.662 150.752 626.506 148.914 626.193 147.476C625.88 146.039 625.421 144.924 624.815 144.122C624.209 143.321 623.505 142.773 622.704 142.49C621.903 142.206 621.043 142.059 620.124 142.059C615.13 142.059 612.638 145.706 612.638 152.991V174.775H597.059V152.991C597.059 150.752 596.913 148.904 596.629 147.437C596.346 145.97 595.926 144.807 595.379 143.947C594.831 143.086 594.128 142.499 593.268 142.187C592.407 141.874 591.401 141.717 590.257 141.717C589.28 141.717 588.362 141.864 587.501 142.147C586.641 142.431 585.879 142.998 585.224 143.829C584.56 144.66 584.042 145.814 583.67 147.271C583.299 148.738 583.113 150.644 583.113 153.001V174.785H567.535V130.62L567.545 130.61ZM668.315 196.824H652.737V130.61H668.315V135.518C671.638 131.324 676.172 129.231 681.909 129.231C685.066 129.231 688.008 129.847 690.734 131.079C693.461 132.311 695.826 133.993 697.83 136.115C699.833 138.236 701.397 140.739 702.521 143.604C703.635 146.479 704.201 149.549 704.201 152.815C704.201 156.081 703.644 159.131 702.521 161.937C701.397 164.753 699.853 167.217 697.869 169.339C695.885 171.461 693.549 173.123 690.852 174.335C688.154 175.538 685.232 176.144 682.075 176.144C676.563 176.144 671.98 174.247 668.305 170.463V196.814L668.315 196.824ZM687.939 152.825C687.939 151.446 687.695 150.146 687.206 148.904C686.718 147.672 686.014 146.596 685.095 145.677C684.177 144.758 683.102 144.025 681.87 143.477C680.639 142.93 679.3 142.656 677.873 142.656C676.446 142.656 675.205 142.91 674.003 143.428C672.801 143.947 671.755 144.66 670.866 145.579C669.976 146.498 669.263 147.574 668.716 148.806C668.168 150.038 667.895 151.348 667.895 152.727C667.895 154.105 668.149 155.396 668.667 156.599C669.185 157.801 669.898 158.848 670.817 159.737C671.735 160.627 672.81 161.341 674.042 161.888C675.273 162.436 676.583 162.71 677.961 162.71C679.339 162.71 680.629 162.456 681.831 161.937C683.033 161.419 684.079 160.705 684.968 159.786C685.857 158.867 686.571 157.801 687.118 156.599C687.666 155.396 687.939 154.135 687.939 152.805V152.825ZM709.626 152.306C709.626 149.031 710.28 145.98 711.609 143.135C712.929 140.29 714.766 137.826 717.122 135.733C719.477 133.641 722.272 131.988 725.517 130.786C728.761 129.583 732.299 128.977 736.15 128.977C740 128.977 743.45 129.564 746.695 130.737C749.939 131.91 752.744 133.553 755.129 135.645C757.504 137.738 759.361 140.241 760.68 143.135C761.999 146.029 762.664 149.236 762.664 152.737C762.664 156.237 761.99 159.434 760.641 162.338C759.292 165.232 757.445 167.736 755.09 169.828C752.735 171.92 749.91 173.543 746.617 174.697C743.313 175.841 739.746 176.418 735.905 176.418C732.065 176.418 728.615 175.841 725.409 174.697C722.194 173.553 719.428 171.911 717.102 169.789C714.776 167.667 712.958 165.125 711.639 162.172C710.32 159.219 709.655 155.934 709.655 152.316L709.626 152.306ZM726.064 152.482C726.064 153.978 726.337 155.337 726.885 156.569C727.432 157.801 728.146 158.877 729.035 159.796C729.924 160.715 730.99 161.429 732.221 161.947C733.452 162.465 734.762 162.72 736.14 162.72C737.518 162.72 738.818 162.465 740.059 161.947C741.29 161.429 742.356 160.715 743.245 159.796C744.134 158.877 744.848 157.801 745.395 156.569C745.942 155.337 746.216 153.998 746.216 152.57C746.216 151.143 745.942 149.891 745.395 148.65C744.848 147.418 744.134 146.342 743.245 145.423C742.356 144.504 741.29 143.79 740.059 143.272C738.827 142.754 737.518 142.499 736.14 142.499C734.762 142.499 733.452 142.754 732.221 143.272C730.99 143.79 729.924 144.504 729.035 145.423C728.146 146.342 727.432 147.408 726.885 148.61C726.337 149.813 726.064 151.104 726.064 152.482ZM799.127 141.981C796.254 140.485 793.449 139.742 790.693 139.742C789.256 139.742 788.093 140.026 787.204 140.603C786.315 141.179 785.865 141.952 785.865 142.93C785.865 143.448 785.934 143.868 786.08 144.181C786.227 144.494 786.54 144.797 787.028 145.081C787.517 145.364 788.23 145.628 789.178 145.853C790.126 146.088 791.377 146.371 792.921 146.714C797.222 147.574 800.437 149.109 802.558 151.319C804.678 153.529 805.744 156.354 805.744 159.796C805.744 162.377 805.226 164.704 804.199 166.768C803.173 168.831 801.737 170.571 799.899 171.979C798.062 173.387 795.853 174.472 793.273 175.255C790.693 176.027 787.849 176.418 784.751 176.418C778.78 176.418 772.906 174.727 767.111 171.334L772.789 160.314C777.148 163.296 781.282 164.792 785.181 164.792C786.618 164.792 787.791 164.48 788.709 163.844C789.628 163.208 790.087 162.407 790.087 161.429C790.087 160.852 790.019 160.383 789.872 160.011C789.726 159.64 789.423 159.297 788.973 158.975C788.514 158.662 787.839 158.369 786.95 158.114C786.061 157.86 784.898 157.586 783.461 157.293C778.643 156.315 775.271 154.868 773.346 152.942C771.421 151.016 770.463 148.366 770.463 144.983C770.463 142.519 770.922 140.29 771.841 138.305C772.76 136.32 774.079 134.648 775.799 133.269C777.519 131.891 779.601 130.835 782.034 130.082C784.468 129.339 787.185 128.967 790.165 128.967C795.042 128.967 799.772 129.916 804.366 131.812L799.117 141.971L799.127 141.981ZM841.21 141.981C838.337 140.485 835.532 139.742 832.776 139.742C831.339 139.742 830.176 140.026 829.287 140.603C828.398 141.179 827.948 141.952 827.948 142.93C827.948 143.448 828.016 143.868 828.163 144.181C828.31 144.494 828.622 144.797 829.111 145.081C829.6 145.364 830.313 145.628 831.261 145.853C832.209 146.088 833.46 146.371 835.004 146.714C839.304 147.574 842.52 149.109 844.64 151.319C846.761 153.529 847.826 156.354 847.826 159.796C847.826 162.377 847.308 164.704 846.282 166.768C845.256 168.831 843.819 170.571 841.982 171.979C840.145 173.387 837.936 174.472 835.356 175.255C832.776 176.027 829.932 176.418 826.834 176.418C820.863 176.418 814.989 174.727 809.193 171.334L814.872 160.314C819.23 163.296 823.364 164.792 827.264 164.792C828.701 164.792 829.873 164.48 830.792 163.844C831.711 163.208 832.17 162.407 832.17 161.429C832.17 160.852 832.102 160.383 831.955 160.011C831.808 159.64 831.505 159.297 831.056 158.975C830.596 158.662 829.922 158.369 829.033 158.114C828.143 157.86 826.98 157.586 825.544 157.293C820.726 156.315 817.354 154.868 815.429 152.942C813.503 151.016 812.546 148.366 812.546 144.983C812.546 142.519 813.005 140.29 813.924 138.305C814.842 136.32 816.162 134.648 817.882 133.269C819.602 131.891 821.683 130.835 824.117 130.082C826.55 129.339 829.267 128.967 832.248 128.967C837.125 128.967 841.855 129.916 846.448 131.812L841.2 141.971L841.21 141.981ZM852.996 113.655C852.996 112.453 853.221 111.318 853.68 110.253C854.14 109.197 854.765 108.258 855.576 107.456C856.378 106.655 857.306 106.019 858.372 105.559C859.437 105.1 860.57 104.875 861.773 104.875C862.975 104.875 864.108 105.11 865.174 105.559C866.229 106.019 867.167 106.655 867.969 107.456C868.77 108.258 869.405 109.197 869.865 110.253C870.324 111.318 870.549 112.453 870.549 113.655C870.549 114.858 870.324 115.992 869.865 117.058C869.405 118.124 868.77 119.053 867.969 119.854C867.167 120.656 866.229 121.292 865.174 121.751C864.108 122.211 862.975 122.445 861.773 122.445C860.57 122.445 859.437 122.221 858.372 121.751C857.306 121.292 856.378 120.666 855.576 119.854C854.775 119.053 854.14 118.114 853.68 117.058C853.221 115.992 852.996 114.858 852.996 113.655ZM869.601 130.61V174.775H854.022V130.61H869.601ZM894.131 103.32V135.01C897.806 131.167 902.389 129.241 907.901 129.241C911.175 129.241 914.166 129.857 916.893 131.089C919.619 132.321 921.945 133.983 923.861 136.085C925.786 138.178 927.291 140.651 928.376 143.487C929.461 146.332 930.008 149.354 930.008 152.57C930.008 155.787 929.451 158.916 928.327 161.781C927.203 164.656 925.639 167.149 923.636 169.271C921.623 171.392 919.258 173.074 916.541 174.306C913.814 175.538 910.872 176.154 907.716 176.154C901.979 176.154 897.444 174.062 894.121 169.867V174.775H878.543V103.311H894.121L894.131 103.32ZM913.755 152.825C913.755 151.446 913.501 150.146 912.983 148.904C912.465 147.672 911.752 146.596 910.833 145.677C909.915 144.758 908.849 144.025 907.647 143.477C906.445 142.93 905.126 142.656 903.689 142.656C902.253 142.656 901.021 142.91 899.819 143.428C898.617 143.947 897.571 144.66 896.682 145.579C895.793 146.498 895.079 147.574 894.532 148.806C893.984 150.038 893.711 151.348 893.711 152.727C893.711 154.105 893.965 155.396 894.483 156.599C895.001 157.801 895.714 158.848 896.633 159.737C897.552 160.627 898.627 161.341 899.858 161.888C901.09 162.436 902.399 162.71 903.777 162.71C905.155 162.71 906.445 162.456 907.647 161.937C908.849 161.419 909.895 160.705 910.784 159.786C911.674 158.867 912.387 157.801 912.935 156.599C913.482 155.396 913.755 154.135 913.755 152.805V152.825ZM952.74 103.32V174.785H937.162V103.32H952.74ZM975.717 155.328C975.717 162.045 978.873 165.399 985.187 165.399C988.568 165.399 991.129 164.02 992.849 161.263H1007.91C1004.87 171.363 997.266 176.418 985.099 176.418C981.365 176.418 977.955 175.861 974.857 174.736C971.758 173.612 969.1 172.028 966.892 169.955C964.683 167.892 962.973 165.418 961.77 162.553C960.568 159.689 959.962 156.472 959.962 152.913C959.962 149.354 960.539 145.922 961.682 142.969C962.826 140.016 964.468 137.503 966.589 135.43C968.709 133.367 971.28 131.773 974.29 130.649C977.3 129.524 980.701 128.967 984.483 128.967C988.265 128.967 991.569 129.524 994.549 130.649C997.53 131.764 1000.06 133.387 1002.12 135.518C1004.19 137.65 1005.77 140.241 1006.85 143.311C1007.95 146.381 1008.49 149.842 1008.49 153.685V155.318H975.697L975.717 155.328ZM993.953 146.283C993.435 144.103 992.37 142.353 990.767 141.033C989.164 139.713 987.21 139.048 984.913 139.048C982.499 139.048 980.535 139.683 979.02 140.945C977.495 142.206 976.538 143.986 976.137 146.283H993.953ZM1014.87 166.513C1014.87 165.135 1015.12 163.834 1015.64 162.592C1016.16 161.36 1016.87 160.285 1017.79 159.366C1018.71 158.447 1019.78 157.733 1021.01 157.215C1022.25 156.697 1023.56 156.442 1024.93 156.442C1026.31 156.442 1027.61 156.697 1028.85 157.215C1030.08 157.733 1031.16 158.447 1032.08 159.366C1033 160.285 1033.71 161.36 1034.23 162.592C1034.75 163.824 1035 165.135 1035 166.513C1035 167.892 1034.75 169.202 1034.23 170.434C1033.71 171.666 1033 172.742 1032.08 173.661C1031.16 174.58 1030.08 175.294 1028.85 175.812C1027.62 176.33 1026.31 176.584 1024.93 176.584C1023.56 176.584 1022.25 176.33 1021.01 175.812C1019.78 175.294 1018.71 174.58 1017.79 173.661C1016.87 172.742 1016.16 171.666 1015.64 170.434C1015.12 169.202 1014.87 167.892 1014.87 166.513Z" fill="#252526"/>
</svg>
