<svg width="672" height="84" viewBox="0 0 672 84" fill="none" xmlns="http://www.w3.org/2000/svg">
<path d="M30.7265 20.8362V71.4648H13.8582V20.8362H0V6.54124H44.5749V20.8362H30.7167H30.7265ZM48.8848 0H64.4631V32.892C66.5838 30.3107 68.7339 28.5703 70.9133 27.6805C73.0927 26.7907 75.6435 26.3508 78.5754 26.3508C84.1363 26.3508 88.3387 27.8858 91.1826 30.956C94.0266 34.0262 95.4437 38.1719 95.4437 43.3932V71.4648H79.8654V49.162C79.8654 46.9229 79.6895 45.1141 79.3475 43.7354C79.0054 42.3568 78.4288 41.3008 77.6274 40.5479C76.2494 39.3452 74.588 38.739 72.6334 38.739C69.9946 38.739 67.9716 39.531 66.5643 41.1052C65.157 42.6892 64.4533 44.9381 64.4533 47.8616V71.455H48.8751V0H48.8848ZM118.332 52.0073C118.332 58.7245 121.489 62.0783 127.802 62.0783C131.184 62.0783 133.744 60.6996 135.464 57.9423H150.525C147.485 68.0426 139.882 73.0977 127.714 73.0977C123.981 73.0977 120.57 72.5404 117.472 71.4159C114.374 70.3013 111.716 68.7075 109.507 66.6347C107.298 64.5716 105.588 62.0978 104.386 59.233C103.184 56.3681 102.578 53.1513 102.578 49.5922C102.578 46.0332 103.155 42.6012 104.298 39.6483C105.442 36.6955 107.083 34.1826 109.204 32.1098C111.325 30.0467 113.895 28.4529 116.905 27.3285C119.915 26.2041 123.316 25.6468 127.108 25.6468C130.9 25.6468 134.194 26.2041 137.175 27.3285C140.155 28.4432 142.687 30.0663 144.749 32.188C146.811 34.3098 148.394 36.9106 149.479 39.9808C150.564 43.051 151.111 46.5123 151.111 50.3549V51.9877H118.322L118.332 52.0073ZM136.578 42.963C136.061 40.7826 134.995 39.0324 133.392 37.7124C131.79 36.3924 129.835 35.7275 127.538 35.7275C125.124 35.7275 123.16 36.3631 121.645 37.6244C120.121 38.8857 119.163 40.6652 118.762 42.963H136.578ZM195.52 6.54124V57.1699H215.74V71.4648H178.652V6.54124H195.52ZM255.331 27.2894H270.997V71.455H255.331V66.5467C251.998 70.7413 247.503 72.8337 241.815 72.8337C238.599 72.8337 235.648 72.247 232.951 71.0639C230.253 69.8906 227.898 68.2382 225.894 66.1164C223.881 63.9947 222.327 61.4916 221.203 58.6268C220.089 55.7619 219.522 52.6331 219.522 49.2402C219.522 46.082 220.07 43.0803 221.155 40.2448C222.239 37.3995 223.764 34.9258 225.719 32.7942C227.673 30.6725 229.989 28.9907 232.687 27.7587C235.384 26.5268 238.365 25.9108 241.639 25.9108C247.151 25.9108 251.705 27.837 255.321 31.6796V27.2894H255.331ZM235.716 49.25C235.716 50.6873 235.97 52.0171 236.488 53.2491C237.006 54.481 237.71 55.5566 238.599 56.4757C239.489 57.3948 240.554 58.1085 241.785 58.6268C243.017 59.145 244.356 59.3992 245.783 59.3992C247.21 59.3992 248.46 59.145 249.702 58.6268C250.933 58.1085 251.998 57.3948 252.888 56.4757C253.777 55.5566 254.49 54.5006 255.038 53.2882C255.585 52.0855 255.859 50.7949 255.859 49.4162C255.859 48.0376 255.585 46.7371 255.038 45.4954C254.49 44.2634 253.777 43.1879 252.888 42.2688C251.998 41.3497 250.933 40.6359 249.702 40.1177C248.47 39.5995 247.161 39.3452 245.783 39.3452C244.405 39.3452 243.017 39.5995 241.785 40.1177C240.554 40.6359 239.489 41.3497 238.599 42.2688C237.71 43.1879 237.006 44.2341 236.488 45.4074C235.97 46.5807 235.716 47.8616 235.716 49.2402V49.25ZM309.122 38.6608C306.249 37.1648 303.444 36.4217 300.688 36.4217C299.251 36.4217 298.088 36.7053 297.199 37.2822C296.309 37.859 295.87 38.6315 295.87 39.6092C295.87 40.1275 295.938 40.5479 296.085 40.8608C296.231 41.1737 296.544 41.4768 297.033 41.7603C297.521 42.0439 298.235 42.3079 299.183 42.5328C300.131 42.7674 301.382 43.051 302.926 43.3932C307.226 44.2536 310.441 45.7887 312.562 47.9985C314.683 50.2082 315.748 53.0339 315.748 56.4757C315.748 59.057 315.23 61.3841 314.204 63.4471C313.178 65.5102 311.741 67.2506 309.904 68.6586C308.066 70.0666 305.858 71.1519 303.278 71.9341C300.697 72.7066 297.853 73.0977 294.755 73.0977C288.784 73.0977 282.91 71.4061 277.115 68.0133L282.793 56.9939C287.152 59.9761 291.286 61.4721 295.185 61.4721C296.622 61.4721 297.795 61.1592 298.714 60.5236C299.632 59.8881 300.092 59.0863 300.092 58.1085C300.092 57.5317 300.023 57.0623 299.877 56.6908C299.73 56.3192 299.427 55.977 298.977 55.6544C298.518 55.3415 297.844 55.0481 296.954 54.7939C296.065 54.5397 294.902 54.2659 293.465 53.9726C288.647 52.9948 285.276 51.5477 283.35 49.6216C281.425 47.6954 280.467 45.0456 280.467 41.6528C280.467 39.1888 280.927 36.9595 281.845 34.9844C282.764 32.9996 284.083 31.3276 285.803 29.9489C287.523 28.5703 289.605 27.5045 292.039 26.7614C294.472 26.0183 297.189 25.6468 300.17 25.6468C305.046 25.6468 309.777 26.5952 314.37 28.4921L309.122 38.651V38.6608ZM340.532 40.2937V71.4648H324.954V40.2937H319.794V27.2894H324.954V14.0309H340.532V27.2894H349.397V40.2937H340.532ZM411.094 20.8362H390.785V31.6796H409.286V45.9745H390.785V71.455H373.917V6.54124H411.094V20.8362ZM433.044 27.2894V52.1735C433.044 57.6294 435.683 60.3574 440.96 60.3574C446.238 60.3574 448.877 57.6294 448.877 52.1735V27.2894H464.455V55.185C464.455 61.1592 462.49 65.6373 458.562 68.6195C454.633 71.6017 448.769 73.0977 440.96 73.0977C433.152 73.0977 427.288 71.6017 423.359 68.6195C419.43 65.6373 417.466 61.1592 417.466 55.185V27.2894H433.044ZM490.705 40.2937V71.4648H475.127V40.2937H469.967V27.2894H475.127V14.0309H490.705V27.2894H499.569V40.2937H490.705ZM519.272 27.2894V52.1735C519.272 57.6294 521.911 60.3574 527.188 60.3574C532.466 60.3574 535.104 57.6294 535.104 52.1735V27.2894H550.682V55.185C550.682 61.1592 548.718 65.6373 544.789 68.6195C540.861 71.6017 534.997 73.0977 527.188 73.0977C519.379 73.0977 513.516 71.6017 509.587 68.6195C505.658 65.6373 503.694 61.1592 503.694 55.185V27.2894H519.272ZM559.547 27.2894H575.125V34.5249C576.786 31.8849 578.829 29.8609 581.233 28.4529C583.637 27.045 586.452 26.341 589.667 26.341H590.996C591.485 26.341 592.042 26.3996 592.677 26.517V41.4083C590.615 40.3719 588.377 39.8537 585.963 39.8537C582.347 39.8537 579.64 40.9292 577.832 43.0803C576.024 45.2314 575.125 48.3798 575.125 52.506V71.4453H559.547V27.2894ZM612.478 52.0073C612.478 58.7245 615.634 62.0783 621.948 62.0783C625.329 62.0783 627.89 60.6996 629.61 57.9423H644.67C641.631 68.0426 634.027 73.0977 621.86 73.0977C618.126 73.0977 614.716 72.5404 611.618 71.4159C608.519 70.2915 605.861 68.7075 603.652 66.6347C601.444 64.5716 599.733 62.0978 598.531 59.233C597.329 56.3681 596.723 53.1513 596.723 49.5922C596.723 46.0332 597.3 42.6012 598.443 39.6483C599.587 36.6955 601.229 34.1826 603.349 32.1098C605.47 30.0369 608.041 28.4529 611.051 27.3285C614.061 26.2041 617.462 25.6468 621.244 25.6468C625.026 25.6468 628.329 26.2041 631.31 27.3285C634.291 28.4432 636.822 30.0663 638.884 32.188C640.946 34.3098 642.53 36.9106 643.615 39.9808C644.709 43.051 645.247 46.5123 645.247 50.3549V51.9877H612.458L612.478 52.0073ZM630.714 42.963C630.196 40.7826 629.131 39.0324 627.528 37.7124C625.925 36.3924 623.971 35.7275 621.674 35.7275C619.26 35.7275 617.296 36.3631 615.781 37.6244C614.256 38.8857 613.299 40.6652 612.898 42.963H630.714ZM657.219 55.0188H671.849L656.017 83.5206H646.038L657.228 55.0188H657.219Z" fill="#252526"/>
</svg>
